<?xml version="1.0" encoding="utf-8"?>
<!-- Generator: Adobe Illustrator 19.1.0, SVG Export Plug-In . SVG Version: 6.00 Build 0)  -->
<svg version="1.1" id="About" xmlns="http://www.w3.org/2000/svg" xmlns:xlink="http://www.w3.org/1999/xlink" x="0px" y="0px"
	 viewBox="0 0 1230.1 846.1" style="enable-background:new 0 0 1230.1 846.1;" xml:space="preserve">
<style type="text/css">
	.st0{opacity:0.4;}
	.st1{fill:none;stroke:#00ABD2;stroke-miterlimit:10;}
</style>
<g id="lines_1_">
	<g class="st0">
		<path class="st1" d="M-48.4,158.8c0,0,50.2,70.2,141.2,103.7c91,33.5,133,58.2,144.7,142.6C258.3,555.4,93.9,690.9,0.3,702.5
			c-66.8,8.2-170.1-71.4-167.2-163.5c2.8-92.1,98.1-246.9,46.1-357.5c-42.1-89.5-35.3-87.2-133.9-133.1
			c-74.8-34.9-62.6-117.2-43-159.7c24.2-52.8,104.2-87.2,177.4-64.9C-47.2-154-34-78.8-75.4,7.4C-116.8,93.6-48.4,158.8-48.4,158.8z
			"/>
		<path class="st1" d="M-50.6,149.4c0,0,51.4,71.2,148.2,102.6c96.8,31.4,141.1,55.5,150.4,143.1C264.7,550.9,82.3,698.5-19,714.1
			c-72.3,11.1-180.5-67.9-173.9-164c6.6-96.1,115.2-261,63.5-374.3c-41.9-91.7-34.7-89.5-139.2-133.6
			c-79.3-33.5-62.9-119.7-40.3-164.8c28.2-56,115.6-94.9,193.7-74.5c78,20.4,89.4,98.3,41.4,189.7
			C-121.8,84.1-50.6,149.4-50.6,149.4z"/>
		<path class="st1" d="M-51,133.7c0,0,53.6,73.3,159.6,101.9c106.1,28.6,154.1,52.1,160.1,144.9c10.6,165.2-199.6,331.5-313,353.2
			c-80.9,15.5-197.3-63.3-185.1-166c12.1-102.7,141.2-283.8,89.3-401.9c-42-95.6-34.1-93.6-148-135.3
			c-86.4-31.7-64-124.3-36.5-173.5c34.1-61.1,133.3-106.9,219-89c85.7,17.8,94.4,100.2,36.5,200C-126.9,67.7-51,133.7-51,133.7z"/>
	</g>
	<g class="st0">
		<path class="st1" d="M490.4,106.6c0,0-78.2,36.5-127.8,119.9C313,309.9,281,346.6,195.9,342.6C44.3,335.5-58.8,149-53,54.9
			C-48.9-12.2,48.4-99.2,138.4-79.5c90,19.6,224.7,141.7,343,110.8c95.7-24.9,92.2-18.8,155.4-107.2c48-67.1,126.7-40.1,164.9-13.1
			c47.5,33.5,66.6,118.4,31.3,186.3c-35.3,67.9-111.7,67.1-188.9,10.6C567,51.3,490.4,106.6,490.4,106.6z"/>
		<path class="st1" d="M500,106.2c0,0-79.4,37.5-128,126.9c-48.6,89.4-80.4,128.5-168.2,121.7C47.6,342.6-64,136.2-60.8,33.8
			c2.3-73.1,99.8-165,193.1-140.9c93.3,24.1,235.5,161.1,356.3,131C586.3-0.6,582.9,6,645.4-88.5c47.4-71.8,129.2-40,169.4-9.4
			c49.9,38,72.1,131.1,37.7,204c-34.4,73-113,69.8-194.1,5.9C577.3,48.2,500,106.2,500,106.2z"/>
		<path class="st1" d="M515.6,108.7c0,0-81.9,39.2-129.4,138.3c-47.5,99.1-79.4,142-171.8,130.8C50.1,358-74.9,120.9-75.5,5.4
			c-0.4-82.4,98.3-182.3,197.1-151.6c98.7,30.7,253.2,190.8,378.8,161.4C602-8.5,598.6-1.2,660.5-105.5c47-79.2,134-40.1,177.3-4.1
			c53.8,44.7,80.6,150.6,47.4,231.6c-33.3,81-115.8,74.5-203.3-0.7C594.4,46.1,515.6,108.7,515.6,108.7z"/>
	</g>
	<g class="st0">
		<path class="st1" d="M1082.4,200.1c0,0,81.8,27.5,175.2,1.3c93.4-26.2,141.9-30.8,200.8,30.9c104.9,109.6,51,315.8-18.1,380
			c-49.3,45.8-179.7,41.7-231.3-34.6c-51.7-76.3-65.1-257.5-172.1-316.8c-86.5-47.9-79.7-49.9-186.5-29.5
			c-81,15.6-119.4-58.3-128.5-104.2c-11.3-57,33.4-131.7,105.7-156.5C900.1-54.2,954.9-1,971.8,93.2
			C988.7,187.3,1082.4,200.1,1082.4,200.1z"/>
		<path class="st1" d="M1075.1,193.7c0,0,83.4,27.6,180.2-3.7c96.9-31.3,146.9-37.7,205.7,27.8c104.7,116.6,43.3,343-29.6,415
			c-52,51.4-186.1,50.7-237-31c-51-81.7-59.5-279-167.8-340.5c-87.6-49.7-80.6-52.2-191-26.7c-83.8,19.3-121.1-60.1-129.2-110
			C696.5,62.8,744.6-20,819.8-49.1c75.2-29.2,130,27.3,144.7,129.5C979.2,182.6,1075.1,193.7,1075.1,193.7z"/>
		<path class="st1" d="M1065.6,181.2c0,0,86.3,28,189.1-11c102.7-39,155.4-48.1,214.6,23.6c105.4,127.6,32.4,385.5-46.7,469.6
			c-56.5,60-197,64.3-247.3-26c-50.3-90.3-51.8-312.7-163.1-378.1c-90-52.9-82.5-55.9-199.2-22.9c-88.6,25-124.7-63.3-131.2-119.3
			c-8.1-69.5,45.4-164.7,125.4-200.5C887-119,942.3-57.4,953.8,57.4C965.4,172.2,1065.6,181.2,1065.6,181.2z"/>
	</g>
	<g class="st0">
		<path class="st1" d="M1110.9,435.9c0,0,29.2-81.2,4.9-175.1c-24.3-93.9-27.8-142.5,35-200.1c111.8-102.6,316.8-44.4,379.5,26
			c44.8,50.2,38,180.5-39.4,230.6c-77.4,50.1-258.8,59.7-320.3,165.4c-49.7,85.5-51.6,78.7-33.3,185.9
			c13.9,81.3-60.8,118.1-106.9,126.3c-57.2,10.1-131-36.1-154.3-109c-23.3-72.9,31.1-126.5,125.5-141.5
			C1096.2,529.3,1110.9,435.9,1110.9,435.9z"/>
		<path class="st1" d="M1104.4,443c0,0,29.3-82.8,0.1-180.3c-29.3-97.5-34.6-147.6,32.1-205.1c118.7-102.3,343.8-36.2,414.3,38.3
			c50.3,53.1,46.8,187.1-35.9,236.3c-82.8,49.2-280.2,53.7-344,160.7c-51.6,86.6-53.8,79.5-30.7,190.4
			c17.6,84.2-62.6,119.8-112.6,126.8c-62.1,8.7-143.8-41.1-171.4-116.9c-27.6-75.8,30-129.4,132.5-142
			C1091.2,538.7,1104.4,443,1104.4,443z"/>
		<path class="st1" d="M1091.7,452.3c0,0,29.8-85.7-7-189.2c-36.8-103.5-44.8-156.4,28.1-214.1c129.8-102.7,386.1-24.4,468.5,56.5
			c58.8,57.7,60.2,198.2-31.2,246.7c-91.4,48.4-313.7,45.3-381.4,155.2c-54.7,88.9-57.6,81.3-27.1,198.7
			c23.1,89.1-65.9,123.3-122,128.7c-69.6,6.7-163.7-48.9-197.8-129.5c-34.1-80.7,28.7-134.7,143.7-143.8
			C1080.6,552.3,1091.7,452.3,1091.7,452.3z"/>
	</g>
</g>
</svg>
