<?xml version="1.0" encoding="utf-8"?>
<!-- Generator: Adobe Illustrator 19.1.0, SVG Export Plug-In . SVG Version: 6.00 Build 0)  -->
<svg version="1.1" id="About" xmlns="http://www.w3.org/2000/svg" xmlns:xlink="http://www.w3.org/1999/xlink" x="0px" y="0px"
	 viewBox="0 0 1300 644.4" style="enable-background:new 0 0 1300 644.4;" xml:space="preserve">
<style type="text/css">
	.st0{opacity:0.4;clip-path:url(#SVGID_2_);}
	.st1{fill:none;stroke:#00ABD2;stroke-miterlimit:10;}
	.st2{display:none;clip-path:url(#SVGID_2_);fill:url(#bottom_white_gradient_2_);}
	.st3{display:none;clip-path:url(#SVGID_2_);fill:url(#top_white_gradient_2_);}
	.st4{display:none;}
	.st5{display:inline;fill:#8852A0;}
	.st6{display:inline;fill:#232627;}
</style>
<g id="lines_1_">
	<defs>
		<path id="SVGID_1_" d="M1300,638.4H0V0c0,0,670.7,0,750.4,0s323.5,0,313.7,0c81.8,0,235.9,0,235.9,0V638.4z"/>
	</defs>
	<clipPath id="SVGID_2_">
		<use xlink:href="#SVGID_1_"  style="overflow:visible;"/>
	</clipPath>
	<g class="st0">
		<path class="st1" d="M-25.9,73.2c0,0,50.2,70.2,141.2,103.7c91,33.5,133,58.2,144.7,142.6c20.8,150.3-143.7,285.8-237.2,297.4
			c-66.8,8.2-170.1-71.4-167.2-163.5c2.8-92.1,98.1-246.9,46.1-357.5C-140.4,6.3-133.7,8.6-232.2-37.3
			c-74.8-34.9-62.6-117.2-43-159.7c24.2-52.8,104.2-87.2,177.4-64.9c73.2,22.3,86.4,97.5,45,183.7C-94.3,8-25.9,73.2-25.9,73.2z"/>
		<path class="st1" d="M-28.1,63.8c0,0,51.4,71.2,148.2,102.6c96.8,31.4,141.1,55.5,150.4,143.1c16.6,155.8-165.8,303.4-267.1,319
			c-72.3,11.1-180.5-67.9-173.9-164c6.6-96.1,115.2-261,63.5-374.3C-148.9-1.5-141.8,0.7-246.2-43.4
			c-79.3-33.5-62.9-119.7-40.3-164.8c28.2-56,115.6-94.9,193.7-74.5c78,20.4,89.4,98.3,41.4,189.7C-99.3-1.5-28.1,63.8-28.1,63.8z"
			/>
		<path class="st1" d="M-28.5,48.1c0,0,53.6,73.3,159.6,101.9c106.1,28.6,154.1,52.1,160.1,144.9C301.9,460,91.6,626.3-21.8,648
			c-80.9,15.5-197.3-63.3-185.1-166c12.1-102.7,141.2-283.8,89.3-401.9c-42-95.6-34.1-93.6-148-135.3
			c-86.4-31.7-64-124.3-36.5-173.5c34.1-61.1,133.3-106.9,219-89c85.7,17.8,94.4,100.2,36.5,200C-104.4-17.9-28.5,48.1-28.5,48.1z"
			/>
	</g>
	<g class="st0">
		<path class="st1" d="M512.9,21c0,0-78.2,36.5-127.8,119.9C335.5,224.2,303.5,261,218.3,257C66.8,249.8-36.3,63.4-30.5-30.7
			c4.1-67.1,101.4-154.1,191.4-134.4c90,19.6,224.7,141.7,343,110.8c95.7-24.9,92.2-18.8,155.4-107.2c48-67.1,126.7-40.1,164.9-13.1
			c47.5,33.5,66.6,118.4,31.3,186.3c-35.3,67.9-111.7,67.1-188.9,10.6C589.5-34.3,512.9,21,512.9,21z"/>
		<path class="st1" d="M522.5,20.6c0,0-79.4,37.5-128,126.9C345.9,236.9,314,276,226.3,269.2C70,257-41.6,50.6-38.4-51.9
			c2.3-73.1,99.8-165,193.1-140.9c93.3,24.1,235.5,161.1,356.3,131c97.8-24.4,94.3-17.8,156.8-112.3c47.4-71.8,129.2-40,169.4-9.4
			c49.9,38,72.1,131.1,37.7,204c-34.4,73-113,69.8-194.1,5.9C599.7-37.5,522.5,20.6,522.5,20.6z"/>
		<path class="st1" d="M538,23c0,0-81.9,39.2-129.4,138.3c-47.5,99.1-79.4,142-171.8,130.8C72.6,272.4-52.4,35.2-53-80.2
			c-0.4-82.4,98.3-182.3,197.1-151.6C242.8-201.1,397.2-41,522.8-70.4C624.5-94.2,621.1-86.8,683-191.1c47-79.2,134-40.1,177.3-4.1
			c53.8,44.7,80.6,150.6,47.4,231.6c-33.3,81-115.8,74.5-203.3-0.7C616.8-39.5,538,23,538,23z"/>
	</g>
	<g class="st0">
		<path class="st1" d="M1104.8,114.4c0,0,81.8,27.5,175.2,1.3c93.4-26.2,141.9-30.8,200.8,30.9c104.9,109.6,51,315.8-18.1,380
			c-49.3,45.8-179.7,41.7-231.3-34.6c-51.7-76.3-65.1-257.5-172.1-316.8c-86.5-47.9-79.7-49.9-186.5-29.5
			c-81,15.6-119.4-58.3-128.5-104.2c-11.3-57,33.4-131.7,105.7-156.5c72.4-24.8,127.2,28.4,144.1,122.6
			C1011.2,101.7,1104.8,114.4,1104.8,114.4z"/>
		<path class="st1" d="M1097.6,108.1c0,0,83.4,27.6,180.2-3.7c96.9-31.3,146.9-37.7,205.7,27.8c104.7,116.6,43.3,343-29.6,415
			c-52,51.4-186.1,50.7-237-31c-51-81.7-59.5-279-167.8-340.5c-87.6-49.7-80.6-52.2-191-26.7c-83.8,19.3-121.1-60.1-129.2-110
			c-10-61.9,38.1-144.6,113.3-173.8c75.2-29.2,130,27.3,144.7,129.5C1001.6,96.9,1097.6,108.1,1097.6,108.1z"/>
		<path class="st1" d="M1088,95.6c0,0,86.3,28,189.1-11c102.7-39,155.4-48.1,214.6,23.6c105.4,127.6,32.4,385.5-46.7,469.6
			c-56.5,60-197,64.3-247.3-26c-50.3-90.3-51.8-312.7-163.1-378.1c-90-52.9-82.5-55.9-199.2-22.9c-88.6,25-124.7-63.3-131.2-119.3
			c-8.1-69.5,45.4-164.7,125.4-200.5c79.9-35.8,135.3,25.9,146.8,140.7C987.8,86.6,1088,95.6,1088,95.6z"/>
	</g>
	<g class="st0">
		<path class="st1" d="M1133.3,350.3c0,0,29.2-81.2,4.9-175.1c-24.3-93.9-27.8-142.5,35-200.1c111.8-102.6,316.8-44.4,379.5,26
			c44.8,50.2,38,180.5-39.4,230.6c-77.4,50.1-258.8,59.7-320.3,165.4c-49.7,85.5-51.6,78.7-33.3,185.9
			c13.9,81.3-60.8,118.1-106.9,126.3c-57.2,10.1-131-36.1-154.3-109c-23.3-72.9,31.1-126.5,125.5-141.5
			C1118.6,443.6,1133.3,350.3,1133.3,350.3z"/>
		<path class="st1" d="M1126.9,357.4c0,0,29.3-82.8,0.1-180.3c-29.3-97.5-34.6-147.6,32.1-205.1c118.7-102.3,343.8-36.2,414.3,38.3
			c50.3,53.1,46.8,187.1-35.9,236.3c-82.8,49.2-280.2,53.7-344,160.7c-51.6,86.6-53.8,79.5-30.7,190.4
			c17.6,84.2-62.6,119.8-112.6,126.8c-62.1,8.7-143.8-41.1-171.4-116.9c-27.6-75.8,30-129.4,132.5-142
			C1113.7,453.1,1126.9,357.4,1126.9,357.4z"/>
		<path class="st1" d="M1114.2,366.7c0,0,29.8-85.7-7-189.2c-36.8-103.5-44.8-156.4,28.1-214.1C1265-139.4,1521.4-61,1603.8,19.9
			c58.8,57.7,60.2,198.2-31.2,246.7c-91.4,48.4-313.7,45.3-381.4,155.2c-54.7,88.9-57.6,81.3-27.1,198.7
			c23.1,89.1-65.9,123.3-122,128.7c-69.6,6.7-163.7-48.9-197.8-129.5c-34.1-80.7,28.7-134.7,143.7-143.8
			C1103.1,466.7,1114.2,366.7,1114.2,366.7z"/>
	</g>
	<linearGradient id="bottom_white_gradient_2_" gradientUnits="userSpaceOnUse" x1="628.5" y1="655.2457" x2="628.5" y2="571.699">
		<stop  offset="5.157020e-03" style="stop-color:#FFFFFF"/>
		<stop  offset="1" style="stop-color:#FFFFFF;stop-opacity:0"/>
	</linearGradient>
	<rect id="bottom_white_gradient_1_" x="-21.5" y="517.4" class="st2" width="1300" height="148"/>
	
		<linearGradient id="top_white_gradient_2_" gradientUnits="userSpaceOnUse" x1="-3370.7988" y1="-21.4811" x2="-3370.7988" y2="-122.843" gradientTransform="matrix(-1 0 0 -1 -2720.7988 -9.1041)">
		<stop  offset="5.157020e-03" style="stop-color:#FFFFFF"/>
		<stop  offset="1" style="stop-color:#FFFFFF;stop-opacity:0"/>
	</linearGradient>
	<rect id="top_white_gradient_1_" x="0" y="0" class="st3" width="1300" height="179.6"/>
</g>
<g class="st4">
	<path class="st5" d="M447.1,228.7l-2.1-4.8h-9.4l-2.1,4.8h-5.3l9.7-22.4h4.8l9.7,22.4H447.1z M440.4,213l-2.8,6.5h5.6L440.4,213z"
		/>
	<path class="st5" d="M483.1,217.3h5v7.9c-2.2,2.5-5.3,3.7-9.2,3.7c-3.3,0-6-1.1-8.3-3.3c-2.2-2.2-3.3-4.9-3.3-8.2
		c0-3.3,1.1-6.1,3.4-8.3s5-3.3,8.2-3.3c3.2,0,6,1.1,8.4,3.2l-2.6,3.7c-1-0.9-1.9-1.5-2.8-1.8c-0.8-0.3-1.8-0.5-2.7-0.5
		c-1.9,0-3.5,0.6-4.8,1.9c-1.3,1.3-2,3-2,5.1c0,2.1,0.6,3.8,1.9,5.1c1.2,1.3,2.7,1.9,4.5,1.9s3.2-0.3,4.3-1V217.3z"/>
	<path class="st5" d="M511.3,206.4v4.4h-11.1v4.6h10v4.3h-10v4.6h11.5v4.4h-16.5v-22.4H511.3z"/>
	<path class="st5" d="M534.3,206.4h5v22.4h-5l-10.7-14v14h-5v-22.4h4.7l11,14.4V206.4z"/>
	<path class="st5" d="M563.5,206.4v4.4h-11.1v4.6h10v4.3h-10v4.6h11.5v4.4h-16.5v-22.4H563.5z"/>
	<path class="st5" d="M589,213.8c0,3.6-1.4,5.9-4.3,6.9l5.7,8h-6.1l-5-7.1h-3.5v7.1h-5v-22.4h8.5c3.5,0,6,0.6,7.4,1.8
		C588.3,209.3,589,211.2,589,213.8z M583,216.4c0.6-0.6,0.9-1.4,0.9-2.6c0-1.2-0.3-2-1-2.5c-0.6-0.4-1.8-0.7-3.4-0.7h-3.7v6.6h3.6
		C581.2,217.3,582.4,217,583,216.4z"/>
	<path class="st5" d="M612.6,228.7l-2.1-4.8h-9.4l-2.1,4.8h-5.3l9.7-22.4h4.8l9.7,22.4H612.6z M605.9,213l-2.8,6.5h5.6L605.9,213z"
		/>
	<path class="st5" d="M630.9,210.7v18h-5v-18h-6.3v-4.3h17.7v4.3H630.9z"/>
	<path class="st5" d="M643.5,206.4h5v22.4h-5V206.4z"/>
	<path class="st5" d="M675.3,225.6c-2.3,2.2-5,3.3-8.4,3.3s-6.1-1.1-8.4-3.3c-2.3-2.2-3.4-5-3.4-8.2c0-3.3,1.1-6,3.4-8.2
		c2.3-2.2,5-3.3,8.4-3.3s6.1,1.1,8.4,3.3c2.3,2.2,3.4,5,3.4,8.2C678.7,220.7,677.6,223.4,675.3,225.6z M673.6,217.4
		c0-2-0.6-3.7-1.9-5.1s-2.9-2.1-4.7-2.1c-1.9,0-3.4,0.7-4.7,2.1c-1.3,1.4-1.9,3.1-1.9,5.1c0,2,0.6,3.7,1.9,5.1
		c1.3,1.4,2.9,2.1,4.7,2.1c1.9,0,3.4-0.7,4.7-2.1C673,221.1,673.6,219.4,673.6,217.4z"/>
	<path class="st5" d="M701.2,206.4h5v22.4h-5l-10.7-14v14h-5v-22.4h4.7l11,14.4V206.4z"/>
	<path class="st5" d="M725.2,206.4h5v22.4h-5V206.4z"/>
	<path class="st5" d="M753.9,206.4h5v22.4h-5l-10.7-14v14h-5v-22.4h4.7l11,14.4V206.4z"/>
	<path class="st5" d="M793.3,206.4v4.4H783v4.8h9.9v4.4H783v8.8h-5v-22.4H793.3z"/>
	<path class="st5" d="M800.1,228.7v-22.4h5v17.9h9.5v4.4H800.1z"/>
	<path class="st5" d="M826.3,223c0.8,1,2,1.6,3.4,1.6c1.4,0,2.5-0.5,3.3-1.6c0.8-1,1.2-2.4,1.2-4.2v-12.4h5v12.5
		c0,3.2-0.9,5.7-2.7,7.5c-1.8,1.7-4.1,2.6-6.9,2.6c-2.8,0-5.1-0.9-6.9-2.6c-1.8-1.7-2.7-4.2-2.7-7.5v-12.5h5v12.4
		C825.1,220.5,825.5,221.9,826.3,223z"/>
	<path class="st5" d="M859.6,206.4h6l-7,10.8l7.6,11.6h-6.1l-4.8-7.4l-4.7,7.4h-6l7.5-11.5l-7-10.9h6l4.3,6.6L859.6,206.4z"/>
</g>
<g class="st4">
	<path class="st6" d="M322.7,373.4h-8.5v4.8h7.6v1.4h-7.6v4.9h8.6v1.4h-10.2v-14h10.1V373.4z"/>
	<path class="st6" d="M335.3,386h-1.8l-3.2-4.2l-3.2,4.2h-1.7l4.1-5.3l-3.9-5.1h1.8l3.1,4l3.1-4h1.7l-3.9,5L335.3,386z"/>
	<path class="st6" d="M343.9,386.2c-1.9,0-3.2-1-4-2.2v5.2h-1.5v-13.5h1.5v2.1c0.8-1.2,2.1-2.3,4-2.3c2.5,0,4.9,2,4.9,5.4
		C348.9,384.2,346.4,386.2,343.9,386.2z M343.7,376.8c-1.9,0-3.7,1.6-3.7,4c0,2.4,1.8,4,3.7,4c2,0,3.6-1.5,3.6-4
		C347.3,378.4,345.6,376.8,343.7,376.8z"/>
	<path class="st6" d="M356.9,384.9c1.4,0,2.4-0.6,3.3-1.5l1,0.9c-1,1.2-2.3,1.9-4.3,1.9c-2.8,0-5.2-2.2-5.2-5.4c0-3,2.1-5.4,5-5.4
		c3.1,0,4.8,2.4,4.8,5.5c0,0.1,0,0.3,0,0.5h-8.2C353.5,383.6,355.1,384.9,356.9,384.9z M359.9,380.2c-0.2-1.9-1.2-3.5-3.3-3.5
		c-1.8,0-3.2,1.5-3.4,3.5H359.9z"/>
	<path class="st6" d="M366.3,386h-1.5v-10.3h1.5v2.7c0.8-1.7,2.3-3,4.2-2.9v1.7h-0.1c-2.3,0-4.1,1.6-4.1,4.7V386z"/>
	<path class="st6" d="M373.5,373.4v-1.7h1.8v1.7H373.5z M373.6,386v-10.3h1.5V386H373.6z"/>
	<path class="st6" d="M383.9,384.9c1.4,0,2.4-0.6,3.3-1.5l1,0.9c-1,1.2-2.3,1.9-4.3,1.9c-2.8,0-5.2-2.2-5.2-5.4c0-3,2.1-5.4,5-5.4
		c3.1,0,4.8,2.4,4.8,5.5c0,0.1,0,0.3,0,0.5h-8.2C380.5,383.6,382.1,384.9,383.9,384.9z M386.9,380.2c-0.2-1.9-1.2-3.5-3.3-3.5
		c-1.8,0-3.2,1.5-3.4,3.5H386.9z"/>
	<path class="st6" d="M393.3,386h-1.5v-10.3h1.5v1.8c0.7-1.1,1.8-2,3.5-2c2.5,0,4,1.7,4,4.1v6.4h-1.5v-6c0-1.9-1-3.1-2.9-3.1
		c-1.8,0-3.1,1.3-3.1,3.2V386z"/>
	<path class="st6" d="M409.3,386.2c-3,0-5.3-2.5-5.3-5.4c0-2.9,2.3-5.4,5.3-5.4c2,0,3.2,0.8,4.1,1.8l-1,1.1
		c-0.8-0.9-1.7-1.6-3.1-1.6c-2.1,0-3.7,1.8-3.7,4c0,2.3,1.6,4,3.8,4c1.3,0,2.3-0.7,3.2-1.5l1,0.9
		C412.5,385.4,411.3,386.2,409.3,386.2z"/>
	<path class="st6" d="M421,384.9c1.4,0,2.4-0.6,3.3-1.5l1,0.9c-1,1.2-2.3,1.9-4.3,1.9c-2.8,0-5.2-2.2-5.2-5.4c0-3,2.1-5.4,5-5.4
		c3.1,0,4.8,2.4,4.8,5.5c0,0.1,0,0.3,0,0.5h-8.2C417.5,383.6,419.1,384.9,421,384.9z M424,380.2c-0.2-1.9-1.2-3.5-3.3-3.5
		c-1.8,0-3.2,1.5-3.4,3.5H424z"/>
	<path class="st6" d="M437.5,383c0,1.3,0.7,1.7,1.7,1.7c0.5,0,1-0.1,1.5-0.4v1.3c-0.5,0.3-1.1,0.4-1.9,0.4c-1.7,0-2.9-0.8-2.9-2.9
		V377h-1.4v-1.4h1.4v-3.1h1.5v3.1h3.3v1.4h-3.3V383z"/>
	<path class="st6" d="M445.7,386h-1.5v-14.6h1.5v6.1c0.7-1.1,1.8-2,3.5-2c2.5,0,4,1.7,4,4.1v6.4h-1.5v-6c0-1.9-1-3.1-2.9-3.1
		c-1.8,0-3.1,1.3-3.1,3.2V386z"/>
	<path class="st6" d="M461.6,384.9c1.4,0,2.4-0.6,3.3-1.5l1,0.9c-1,1.2-2.3,1.9-4.3,1.9c-2.8,0-5.2-2.2-5.2-5.4c0-3,2.1-5.4,5-5.4
		c3.1,0,4.8,2.4,4.8,5.5c0,0.1,0,0.3,0,0.5H458C458.2,383.6,459.8,384.9,461.6,384.9z M464.6,380.2c-0.2-1.9-1.2-3.5-3.3-3.5
		c-1.8,0-3.2,1.5-3.4,3.5H464.6z"/>
	<path class="st6" d="M480.7,386.2c-3,0-5.3-2.5-5.3-5.4c0-2.9,2.3-5.4,5.3-5.4c2,0,3.2,0.8,4.1,1.8l-1,1.1
		c-0.8-0.9-1.7-1.6-3.1-1.6c-2.1,0-3.7,1.8-3.7,4c0,2.3,1.6,4,3.8,4c1.3,0,2.3-0.7,3.2-1.5l1,0.9
		C483.9,385.4,482.7,386.2,480.7,386.2z"/>
	<path class="st6" d="M495.4,375.6h1.5V386h-1.5v-1.8c-0.7,1.1-1.8,2-3.5,2c-2.5,0-4-1.7-4-4.1v-6.4h1.5v6c0,1.9,1,3.1,2.9,3.1
		c1.8,0,3.1-1.3,3.1-3.2V375.6z"/>
	<path class="st6" d="M501.2,386v-14.6h1.5V386H501.2z"/>
	<path class="st6" d="M518.7,375.4c2.4,0,3.8,1.6,3.8,4.2v6.4H521v-6c0-2-1-3.1-2.7-3.1c-1.6,0-2.9,1.2-2.9,3.2v6H514v-6.1
		c0-1.9-1-3.1-2.7-3.1c-1.6,0-2.9,1.4-2.9,3.3v5.9h-1.5v-10.3h1.5v1.7c0.7-1,1.6-2,3.3-2c1.7,0,2.8,0.9,3.3,2.1
		C515.8,376.3,516.9,375.4,518.7,375.4z"/>
	<path class="st6" d="M526.5,373.4v-1.7h1.8v1.7H526.5z M526.6,386v-10.3h1.5V386H526.6z"/>
	<path class="st6" d="M533.9,386h-1.5v-10.3h1.5v1.8c0.7-1.1,1.8-2,3.5-2c2.5,0,4,1.7,4,4.1v6.4h-1.5v-6c0-1.9-1-3.1-2.9-3.1
		c-1.8,0-3.1,1.3-3.1,3.2V386z"/>
	<path class="st6" d="M545.9,377.6l-0.5-1.3c1.1-0.5,2.3-0.9,3.8-0.9c2.8,0,4.4,1.4,4.4,4.2v6.3h-1.5v-1.6c-0.7,0.9-1.9,1.8-3.7,1.8
		c-1.9,0-3.9-1.1-3.9-3.2c0-2.2,1.8-3.4,4.4-3.4c1.3,0,2.3,0.2,3.2,0.4v-0.4c0-1.9-1.1-2.8-3.1-2.8
		C547.8,376.9,546.8,377.2,545.9,377.6z M546.1,382.9c0,1.3,1.2,2.1,2.6,2.1c1.9,0,3.5-1.2,3.5-2.8v-1c-0.8-0.2-1.8-0.4-3-0.4
		C547.1,380.7,546.1,381.6,546.1,382.9z"/>
	<path class="st6" d="M559.4,383c0,1.3,0.7,1.7,1.7,1.7c0.5,0,1-0.1,1.5-0.4v1.3c-0.5,0.3-1.1,0.4-1.9,0.4c-1.7,0-2.9-0.8-2.9-2.9
		V377h-1.4v-1.4h1.4v-3.1h1.5v3.1h3.3v1.4h-3.3V383z"/>
	<path class="st6" d="M566.1,373.4v-1.7h1.8v1.7H566.1z M566.2,386v-10.3h1.5V386H566.2z"/>
	<path class="st6" d="M576.6,386.2c-3.1,0-5.4-2.4-5.4-5.4s2.3-5.4,5.4-5.4c3.1,0,5.4,2.4,5.4,5.4
		C582,383.7,579.7,386.2,576.6,386.2z M576.6,376.8c-2.2,0-3.8,1.8-3.8,4c0,2.2,1.6,4,3.8,4c2.2,0,3.8-1.8,3.8-4
		C580.5,378.6,578.8,376.8,576.6,376.8z"/>
	<path class="st6" d="M587,386h-1.5v-10.3h1.5v1.8c0.7-1.1,1.8-2,3.5-2c2.5,0,4,1.7,4,4.1v6.4h-1.5v-6c0-1.9-1-3.1-2.9-3.1
		c-1.8,0-3.1,1.3-3.1,3.2V386z"/>
	<path class="st6" d="M609.7,386.2c-3.1,0-5.4-2.4-5.4-5.4s2.3-5.4,5.4-5.4c3.1,0,5.4,2.4,5.4,5.4
		C615.1,383.7,612.8,386.2,609.7,386.2z M609.7,376.8c-2.2,0-3.8,1.8-3.8,4c0,2.2,1.6,4,3.8,4c2.2,0,3.8-1.8,3.8-4
		C613.5,378.6,611.8,376.8,609.7,376.8z"/>
	<path class="st6" d="M623.8,375.7v1.3h-3.3v9H619v-9h-1.4v-1.3h1.4v-0.9c0-2.3,1.1-3.5,3.1-3.5c0.7,0,1.2,0.1,1.7,0.3v1.3
		c-0.6-0.2-1-0.3-1.5-0.3c-1.2,0-1.8,0.7-1.8,2.2v0.8H623.8z"/>
	<path class="st6" d="M633,373.4V372h8.9v1.2l-4.4,4.9c2.5,0.2,4.6,1.4,4.6,4c0,2.5-2.1,4.2-4.7,4.2c-2.3,0-4.1-1-5.2-2.5l1.1-1
		c1.1,1.3,2.4,2.1,4.1,2.1c1.7,0,3.1-1.1,3.1-2.7c0-1.8-1.6-2.7-3.9-2.7h-0.9l-0.3-0.9l4.4-5H633z"/>
	<path class="st6" d="M657.5,386.3c-0.9,2.1-1.9,2.9-3.4,2.9c-0.9,0-1.5-0.2-2.2-0.5l0.5-1.2c0.5,0.3,1,0.4,1.6,0.4
		c0.9,0,1.5-0.5,2.1-1.9l-4.7-10.3h1.7l3.8,8.6l3.3-8.6h1.6L657.5,386.3z"/>
	<path class="st6" d="M668.8,384.9c1.4,0,2.4-0.6,3.3-1.5l1,0.9c-1,1.2-2.3,1.9-4.3,1.9c-2.8,0-5.2-2.2-5.2-5.4c0-3,2.1-5.4,5-5.4
		c3.1,0,4.8,2.4,4.8,5.5c0,0.1,0,0.3,0,0.5h-8.2C665.4,383.6,667,384.9,668.8,384.9z M671.9,380.2c-0.2-1.9-1.2-3.5-3.3-3.5
		c-1.8,0-3.2,1.5-3.4,3.5H671.9z"/>
	<path class="st6" d="M677.3,377.6l-0.5-1.3c1.1-0.5,2.3-0.9,3.8-0.9c2.8,0,4.4,1.4,4.4,4.2v6.3h-1.5v-1.6c-0.7,0.9-1.9,1.8-3.7,1.8
		c-1.9,0-3.9-1.1-3.9-3.2c0-2.2,1.8-3.4,4.4-3.4c1.3,0,2.3,0.2,3.2,0.4v-0.4c0-1.9-1.1-2.8-3.1-2.8
		C679.2,376.9,678.3,377.2,677.3,377.6z M677.5,382.9c0,1.3,1.2,2.1,2.6,2.1c1.9,0,3.5-1.2,3.5-2.8v-1c-0.8-0.2-1.8-0.4-3-0.4
		C678.6,380.7,677.5,381.6,677.5,382.9z"/>
	<path class="st6" d="M690.4,386h-1.5v-10.3h1.5v2.7c0.8-1.7,2.3-3,4.2-2.9v1.7h-0.1c-2.3,0-4.1,1.6-4.1,4.7V386z"/>
	<path class="st6" d="M701,386.2c-1.5,0-3.1-0.6-4.3-1.5l0.8-1.1c1.1,0.8,2.4,1.3,3.6,1.3c1.2,0,2.1-0.6,2.1-1.6v0
		c0-1-1.2-1.4-2.6-1.8c-1.6-0.5-3.4-1-3.4-2.9v0c0-1.8,1.5-3,3.5-3c1.3,0,2.7,0.4,3.7,1.1l-0.7,1.2c-1-0.6-2.1-1-3.1-1
		c-1.2,0-2,0.6-2,1.5v0c0,1,1.3,1.4,2.7,1.8c1.6,0.5,3.3,1.1,3.3,3v0C704.7,385,703.1,386.2,701,386.2z"/>
	<path class="st6" d="M719.5,386.2c-3.1,0-5.4-2.4-5.4-5.4s2.3-5.4,5.4-5.4c3.1,0,5.4,2.4,5.4,5.4
		C724.9,383.7,722.6,386.2,719.5,386.2z M719.5,376.8c-2.2,0-3.8,1.8-3.8,4c0,2.2,1.6,4,3.8,4c2.2,0,3.8-1.8,3.8-4
		C723.3,378.6,721.7,376.8,719.5,376.8z"/>
	<path class="st6" d="M733.7,375.7v1.3h-3.3v9h-1.5v-9h-1.4v-1.3h1.4v-0.9c0-2.3,1.1-3.5,3.1-3.5c0.7,0,1.2,0.1,1.7,0.3v1.3
		c-0.6-0.2-1-0.3-1.5-0.3c-1.2,0-1.8,0.7-1.8,2.2v0.8H733.7z"/>
	<path class="st6" d="M747.4,389.2c-1.7,0-3.3-0.5-4.7-1.4l0.7-1.2c1.2,0.9,2.5,1.3,4,1.3c2.3,0,3.8-1.3,3.8-3.7V383
		c-0.9,1.2-2.2,2.2-4.1,2.2c-2.5,0-4.9-1.8-4.9-4.9c0-3,2.4-4.9,4.9-4.9c1.9,0,3.2,1,4,2.1v-1.9h1.5v8.5
		C752.7,387.5,750.6,389.2,747.4,389.2z M747.4,376.8c-2,0-3.6,1.3-3.6,3.5c0,2.1,1.7,3.5,3.6,3.5c2,0,3.8-1.4,3.8-3.5
		C751.2,378.2,749.3,376.8,747.4,376.8z"/>
	<path class="st6" d="M758.2,386h-1.5v-10.3h1.5v2.7c0.8-1.7,2.3-3,4.2-2.9v1.7h-0.1c-2.3,0-4.1,1.6-4.1,4.7V386z"/>
	<path class="st6" d="M772.7,375.6h1.5V386h-1.5v-1.8c-0.7,1.1-1.8,2-3.5,2c-2.5,0-4-1.7-4-4.1v-6.4h1.5v6c0,1.9,1,3.1,2.9,3.1
		c1.8,0,3.1-1.3,3.1-3.2V375.6z"/>
	<path class="st6" d="M782.9,384.9c1.4,0,2.4-0.6,3.3-1.5l1,0.9c-1,1.2-2.3,1.9-4.3,1.9c-2.8,0-5.2-2.2-5.2-5.4c0-3,2.1-5.4,5-5.4
		c3.1,0,4.8,2.4,4.8,5.5c0,0.1,0,0.3,0,0.5h-8.2C779.5,383.6,781.1,384.9,782.9,384.9z M785.9,380.2c-0.2-1.9-1.2-3.5-3.3-3.5
		c-1.8,0-3.2,1.5-3.4,3.5H785.9z"/>
	<path class="st6" d="M790.9,386v-14.6h1.5V386H790.9z"/>
	<path class="st6" d="M796.8,386v-14.6h1.5V386H796.8z"/>
	<path class="st6" d="M802.5,373.4v-1.7h1.8v1.7H802.5z M802.6,386v-10.3h1.5V386H802.6z"/>
	<path class="st6" d="M809.9,386h-1.5v-10.3h1.5v1.8c0.7-1.1,1.8-2,3.5-2c2.5,0,4,1.7,4,4.1v6.4h-1.5v-6c0-1.9-1-3.1-2.9-3.1
		c-1.8,0-3.1,1.3-3.1,3.2V386z"/>
	<path class="st6" d="M825.8,389.2c-1.7,0-3.3-0.5-4.7-1.4l0.7-1.2c1.2,0.9,2.5,1.3,4,1.3c2.3,0,3.8-1.3,3.8-3.7V383
		c-0.9,1.2-2.2,2.2-4.1,2.2c-2.5,0-4.9-1.8-4.9-4.9c0-3,2.4-4.9,4.9-4.9c1.9,0,3.2,1,4,2.1v-1.9h1.5v8.5
		C831.1,387.5,829,389.2,825.8,389.2z M825.8,376.8c-2,0-3.6,1.3-3.6,3.5c0,2.1,1.7,3.5,3.6,3.5c2,0,3.8-1.4,3.8-3.5
		C829.6,378.2,827.8,376.8,825.8,376.8z"/>
	<path class="st6" d="M843.3,386h-1.5v-14.6h1.5v6.1c0.7-1.1,1.8-2,3.5-2c2.5,0,4,1.7,4,4.1v6.4h-1.5v-6c0-1.9-1-3.1-2.9-3.1
		c-1.8,0-3.1,1.3-3.1,3.2V386z"/>
	<path class="st6" d="M855.2,377.6l-0.5-1.3c1.1-0.5,2.3-0.9,3.8-0.9c2.8,0,4.4,1.4,4.4,4.2v6.3h-1.5v-1.6c-0.7,0.9-1.9,1.8-3.7,1.8
		c-1.9,0-3.9-1.1-3.9-3.2c0-2.2,1.8-3.4,4.4-3.4c1.3,0,2.3,0.2,3.2,0.4v-0.4c0-1.9-1.1-2.8-3.1-2.8
		C857.2,376.9,856.2,377.2,855.2,377.6z M855.4,382.9c0,1.3,1.2,2.1,2.6,2.1c1.9,0,3.5-1.2,3.5-2.8v-1c-0.8-0.2-1.8-0.4-3-0.4
		C856.5,380.7,855.4,381.6,855.4,382.9z"/>
	<path class="st6" d="M868.4,386h-1.5v-10.3h1.5v2.7c0.8-1.7,2.3-3,4.2-2.9v1.7h-0.1c-2.3,0-4.1,1.6-4.1,4.7V386z"/>
	<path class="st6" d="M883.4,386v-2.1c-0.8,1.2-2.1,2.3-4,2.3c-2.5,0-4.9-2-4.9-5.4c0-3.4,2.5-5.4,4.9-5.4c1.9,0,3.2,1,4,2.2v-6.2
		h1.5V386H883.4z M879.7,376.8c-2,0-3.6,1.5-3.6,4c0,2.5,1.7,4,3.6,4c1.9,0,3.7-1.6,3.7-4C883.5,378.4,881.7,376.8,879.7,376.8z"/>
	<path class="st6" d="M905.9,383.9l2.7-8.3h1.6l-3.6,10.4h-1.3l-2.8-8.2l-2.8,8.2h-1.4l-3.6-10.4h1.6l2.7,8.3l2.8-8.3h1.3
		L905.9,383.9z"/>
	<path class="st6" d="M917.6,386.2c-3.1,0-5.4-2.4-5.4-5.4s2.3-5.4,5.4-5.4c3.1,0,5.4,2.4,5.4,5.4
		C923.1,383.7,920.8,386.2,917.6,386.2z M917.6,376.8c-2.2,0-3.8,1.8-3.8,4c0,2.2,1.6,4,3.8,4c2.2,0,3.8-1.8,3.8-4
		C921.5,378.6,919.8,376.8,917.6,376.8z"/>
	<path class="st6" d="M928,386h-1.5v-10.3h1.5v2.7c0.8-1.7,2.3-3,4.2-2.9v1.7h-0.1c-2.3,0-4.1,1.6-4.1,4.7V386z"/>
	<path class="st6" d="M944.3,386h-1.8l-3.7-4.8l-2.1,2.1v2.7h-1.5v-14.6h1.5v10.1l5.6-5.8h1.9l-4.3,4.4L944.3,386z"/>
	<path class="st6" d="M954.3,377.6l-0.5-1.3c1.1-0.5,2.3-0.9,3.8-0.9c2.8,0,4.4,1.4,4.4,4.2v6.3h-1.5v-1.6c-0.7,0.9-1.9,1.8-3.7,1.8
		c-1.9,0-3.9-1.1-3.9-3.2c0-2.2,1.8-3.4,4.4-3.4c1.3,0,2.3,0.2,3.2,0.4v-0.4c0-1.9-1.1-2.8-3.1-2.8
		C956.2,376.9,955.3,377.2,954.3,377.6z M954.5,382.9c0,1.3,1.2,2.1,2.6,2.1c1.9,0,3.5-1.2,3.5-2.8v-1c-0.8-0.2-1.8-0.4-3-0.4
		C955.6,380.7,954.5,381.6,954.5,382.9z"/>
	<path class="st6" d="M967.4,386h-1.5v-10.3h1.5v1.8c0.7-1.1,1.8-2,3.5-2c2.5,0,4,1.7,4,4.1v6.4h-1.5v-6c0-1.9-1-3.1-2.9-3.1
		c-1.8,0-3.1,1.3-3.1,3.2V386z"/>
	<path class="st6" d="M987.1,386v-2.1c-0.8,1.2-2.1,2.3-4,2.3c-2.5,0-4.9-2-4.9-5.4c0-3.4,2.5-5.4,4.9-5.4c1.9,0,3.2,1,4,2.2v-6.2
		h1.5V386H987.1z M983.4,376.8c-2,0-3.6,1.5-3.6,4c0,2.5,1.7,4,3.6,4c1.9,0,3.7-1.6,3.7-4C987.2,378.4,985.4,376.8,983.4,376.8z"/>
	<path class="st6" d="M340.1,410.2c-1.9,0-3.2-1-4-2.2v5.2h-1.5v-13.5h1.5v2.1c0.8-1.2,2.1-2.3,4-2.3c2.5,0,4.9,2,4.9,5.4
		C345,408.2,342.6,410.2,340.1,410.2z M339.8,400.8c-1.9,0-3.7,1.6-3.7,4c0,2.4,1.8,4,3.7,4c2,0,3.6-1.5,3.6-4
		C343.4,402.4,341.7,400.8,339.8,400.8z"/>
	<path class="st6" d="M353,408.9c1.4,0,2.4-0.6,3.3-1.5l1,0.9c-1,1.2-2.3,1.9-4.3,1.9c-2.8,0-5.2-2.2-5.2-5.4c0-3,2.1-5.4,5-5.4
		c3.1,0,4.8,2.4,4.8,5.5c0,0.1,0,0.3,0,0.5h-8.2C349.6,407.6,351.2,408.9,353,408.9z M356,404.2c-0.2-1.9-1.2-3.5-3.3-3.5
		c-1.8,0-3.2,1.5-3.4,3.5H356z"/>
	<path class="st6" d="M362.4,410h-1.5v-10.3h1.5v2.7c0.8-1.7,2.3-3,4.2-2.9v1.7h-0.1c-2.3,0-4.1,1.6-4.1,4.7V410z"/>
	<path class="st6" d="M373,410.2c-1.5,0-3.1-0.6-4.3-1.5l0.8-1.1c1.1,0.8,2.4,1.3,3.6,1.3c1.2,0,2.1-0.6,2.1-1.6v0
		c0-1-1.2-1.4-2.6-1.8c-1.6-0.5-3.4-1-3.4-2.9v0c0-1.8,1.5-3,3.5-3c1.3,0,2.7,0.4,3.7,1.1l-0.7,1.2c-1-0.6-2.1-1-3.1-1
		c-1.2,0-2,0.6-2,1.5v0c0,1,1.3,1.4,2.7,1.8c1.6,0.5,3.3,1.1,3.3,3v0C376.7,409,375.1,410.2,373,410.2z"/>
	<path class="st6" d="M385.6,410.2c-1.9,0-3.2-1-4-2.2v5.2h-1.5v-13.5h1.5v2.1c0.8-1.2,2.1-2.3,4-2.3c2.5,0,4.9,2,4.9,5.4
		C390.6,408.2,388.1,410.2,385.6,410.2z M385.4,400.8c-1.9,0-3.7,1.6-3.7,4c0,2.4,1.8,4,3.7,4c2,0,3.6-1.5,3.6-4
		C389,402.4,387.3,400.8,385.4,400.8z"/>
	<path class="st6" d="M394.1,397.4v-1.7h1.8v1.7H394.1z M394.2,410v-10.3h1.5V410H394.2z"/>
	<path class="st6" d="M401.4,410h-1.5v-10.3h1.5v2.7c0.8-1.7,2.3-3,4.2-2.9v1.7h-0.1c-2.3,0-4.1,1.6-4.1,4.7V410z"/>
	<path class="st6" d="M408.7,401.6l-0.5-1.3c1.1-0.5,2.3-0.9,3.8-0.9c2.8,0,4.4,1.4,4.4,4.2v6.3h-1.5v-1.6c-0.7,0.9-1.9,1.8-3.7,1.8
		c-1.9,0-3.9-1.1-3.9-3.2c0-2.2,1.8-3.4,4.4-3.4c1.3,0,2.3,0.2,3.2,0.4v-0.4c0-1.9-1.1-2.8-3.1-2.8
		C410.6,400.9,409.6,401.2,408.7,401.6z M408.9,406.9c0,1.3,1.2,2.1,2.6,2.1c1.9,0,3.5-1.2,3.5-2.8v-1c-0.8-0.2-1.8-0.4-3-0.4
		C409.9,404.7,408.9,405.6,408.9,406.9z"/>
	<path class="st6" d="M422.2,407c0,1.3,0.7,1.7,1.7,1.7c0.5,0,1-0.1,1.5-0.4v1.3c-0.5,0.3-1.1,0.4-1.9,0.4c-1.7,0-2.9-0.8-2.9-2.9
		V401h-1.4v-1.4h1.4v-3.1h1.5v3.1h3.3v1.4h-3.3V407z"/>
	<path class="st6" d="M428.9,397.4v-1.7h1.8v1.7H428.9z M429,410v-10.3h1.5V410H429z"/>
	<path class="st6" d="M439.4,410.2c-3.1,0-5.4-2.4-5.4-5.4s2.3-5.4,5.4-5.4c3.1,0,5.4,2.4,5.4,5.4
		C444.8,407.7,442.5,410.2,439.4,410.2z M439.4,400.8c-2.2,0-3.8,1.8-3.8,4c0,2.2,1.6,4,3.8,4c2.2,0,3.8-1.8,3.8-4
		C443.3,402.6,441.6,400.8,439.4,400.8z"/>
	<path class="st6" d="M449.8,410h-1.5v-10.3h1.5v1.8c0.7-1.1,1.8-2,3.5-2c2.5,0,4,1.7,4,4.1v6.4h-1.5v-6c0-1.9-1-3.1-2.9-3.1
		c-1.8,0-3.1,1.3-3.1,3.2V410z"/>
	<path class="st6" d="M461.7,410H461v-2.1h1.8v1.8c0,1.6-0.7,2.4-2.2,2.7l-0.2-0.7C461.3,411.4,461.8,410.8,461.7,410z"/>
	<path class="st6" d="M483.6,407.9l2.7-8.3h1.6l-3.6,10.4h-1.3l-2.8-8.2l-2.8,8.2H476l-3.6-10.4h1.6l2.7,8.3l2.8-8.3h1.3
		L483.6,407.9z"/>
	<path class="st6" d="M492.6,410h-1.5v-14.6h1.5v6.1c0.7-1.1,1.8-2,3.5-2c2.5,0,4,1.7,4,4.1v6.4h-1.5v-6c0-1.9-1-3.1-2.9-3.1
		c-1.8,0-3.1,1.3-3.1,3.2V410z"/>
	<path class="st6" d="M508.5,408.9c1.4,0,2.4-0.6,3.3-1.5l1,0.9c-1,1.2-2.3,1.9-4.3,1.9c-2.8,0-5.2-2.2-5.2-5.4c0-3,2.1-5.4,5-5.4
		c3.1,0,4.8,2.4,4.8,5.5c0,0.1,0,0.3,0,0.5h-8.2C505.1,407.6,506.7,408.9,508.5,408.9z M511.6,404.2c-0.2-1.9-1.2-3.5-3.3-3.5
		c-1.8,0-3.2,1.5-3.4,3.5H511.6z"/>
	<path class="st6" d="M518,410h-1.5v-10.3h1.5v2.7c0.8-1.7,2.3-3,4.2-2.9v1.7h-0.1c-2.3,0-4.1,1.6-4.1,4.7V410z"/>
	<path class="st6" d="M529.2,408.9c1.4,0,2.4-0.6,3.3-1.5l1,0.9c-1,1.2-2.3,1.9-4.3,1.9c-2.8,0-5.2-2.2-5.2-5.4c0-3,2.1-5.4,5-5.4
		c3.1,0,4.8,2.4,4.8,5.5c0,0.1,0,0.3,0,0.5h-8.2C525.8,407.6,527.4,408.9,529.2,408.9z M532.3,404.2c-0.2-1.9-1.2-3.5-3.3-3.5
		c-1.8,0-3.2,1.5-3.4,3.5H532.3z"/>
	<path class="st6" d="M547.1,410.2c-1.5,0-3.1-0.6-4.3-1.5l0.8-1.1c1.1,0.8,2.4,1.3,3.6,1.3c1.2,0,2.1-0.6,2.1-1.6v0
		c0-1-1.2-1.4-2.6-1.8c-1.6-0.5-3.4-1-3.4-2.9v0c0-1.8,1.5-3,3.5-3c1.3,0,2.7,0.4,3.7,1.1l-0.7,1.2c-1-0.6-2.1-1-3.1-1
		c-1.2,0-2,0.6-2,1.5v0c0,1,1.3,1.4,2.7,1.8c1.6,0.5,3.3,1.1,3.3,3v0C550.8,409,549.2,410.2,547.1,410.2z"/>
	<path class="st6" d="M556.2,407c0,1.3,0.7,1.7,1.7,1.7c0.5,0,1-0.1,1.5-0.4v1.3c-0.5,0.3-1.1,0.4-1.9,0.4c-1.7,0-2.9-0.8-2.9-2.9
		V401h-1.4v-1.4h1.4v-3.1h1.5v3.1h3.3v1.4h-3.3V407z"/>
	<path class="st6" d="M570.1,399.6h1.5V410h-1.5v-1.8c-0.7,1.1-1.8,2-3.5,2c-2.5,0-4-1.7-4-4.1v-6.4h1.5v6c0,1.9,1,3.1,2.9,3.1
		c1.8,0,3.1-1.3,3.1-3.2V399.6z"/>
	<path class="st6" d="M584,410v-2.1c-0.8,1.2-2.1,2.3-4,2.3c-2.5,0-4.9-2-4.9-5.4c0-3.4,2.5-5.4,4.9-5.4c1.9,0,3.2,1,4,2.2v-6.2h1.5
		V410H584z M580.3,400.8c-2,0-3.6,1.5-3.6,4c0,2.5,1.7,4,3.6,4c1.9,0,3.7-1.6,3.7-4C584,402.4,582.2,400.8,580.3,400.8z"/>
	<path class="st6" d="M594.1,408.9c1.4,0,2.4-0.6,3.3-1.5l1,0.9c-1,1.2-2.3,1.9-4.3,1.9c-2.8,0-5.2-2.2-5.2-5.4c0-3,2.1-5.4,5-5.4
		c3.1,0,4.8,2.4,4.8,5.5c0,0.1,0,0.3,0,0.5h-8.2C590.7,407.6,592.3,408.9,594.1,408.9z M597.1,404.2c-0.2-1.9-1.2-3.5-3.3-3.5
		c-1.8,0-3.2,1.5-3.4,3.5H597.1z"/>
	<path class="st6" d="M603.5,410H602v-10.3h1.5v1.8c0.7-1.1,1.8-2,3.5-2c2.5,0,4,1.7,4,4.1v6.4h-1.5v-6c0-1.9-1-3.1-2.9-3.1
		c-1.8,0-3.1,1.3-3.1,3.2V410z"/>
	<path class="st6" d="M617,407c0,1.3,0.7,1.7,1.7,1.7c0.5,0,1-0.1,1.5-0.4v1.3c-0.5,0.3-1.1,0.4-1.9,0.4c-1.7,0-2.9-0.8-2.9-2.9V401
		H614v-1.4h1.4v-3.1h1.5v3.1h3.3v1.4H617V407z"/>
	<path class="st6" d="M627,410.2c-1.5,0-3.1-0.6-4.3-1.5l0.8-1.1c1.1,0.8,2.4,1.3,3.6,1.3c1.2,0,2.1-0.6,2.1-1.6v0
		c0-1-1.2-1.4-2.6-1.8c-1.6-0.5-3.4-1-3.4-2.9v0c0-1.8,1.5-3,3.5-3c1.3,0,2.7,0.4,3.7,1.1l-0.7,1.2c-1-0.6-2.1-1-3.1-1
		c-1.2,0-2,0.6-2,1.5v0c0,1,1.3,1.4,2.7,1.8c1.6,0.5,3.3,1.1,3.3,3v0C630.7,409,629.1,410.2,627,410.2z"/>
	<path class="st6" d="M646.3,410.2c-1.9,0-3.2-1-4-2.2v2h-1.5v-14.6h1.5v6.3c0.8-1.2,2.1-2.3,4-2.3c2.5,0,4.9,2,4.9,5.4
		C651.2,408.2,648.8,410.2,646.3,410.2z M646,400.8c-1.9,0-3.7,1.6-3.7,4c0,2.4,1.8,4,3.7,4c2,0,3.6-1.5,3.6-4
		C649.6,402.4,647.9,400.8,646,400.8z"/>
	<path class="st6" d="M654.8,410v-14.6h1.5V410H654.8z"/>
	<path class="st6" d="M665.1,408.9c1.4,0,2.4-0.6,3.3-1.5l1,0.9c-1,1.2-2.3,1.9-4.3,1.9c-2.8,0-5.2-2.2-5.2-5.4c0-3,2.1-5.4,5-5.4
		c3.1,0,4.8,2.4,4.8,5.5c0,0.1,0,0.3,0,0.5h-8.2C661.6,407.6,663.2,408.9,665.1,408.9z M668.1,404.2c-0.2-1.9-1.2-3.5-3.3-3.5
		c-1.8,0-3.2,1.5-3.4,3.5H668.1z"/>
	<path class="st6" d="M674.5,410h-1.5v-10.3h1.5v1.8c0.7-1.1,1.8-2,3.5-2c2.5,0,4,1.7,4,4.1v6.4h-1.5v-6c0-1.9-1-3.1-2.9-3.1
		c-1.8,0-3.1,1.3-3.1,3.2V410z"/>
	<path class="st6" d="M694.2,410v-2.1c-0.8,1.2-2.1,2.3-4,2.3c-2.5,0-4.9-2-4.9-5.4c0-3.4,2.5-5.4,4.9-5.4c1.9,0,3.2,1,4,2.2v-6.2
		h1.5V410H694.2z M690.5,400.8c-2,0-3.6,1.5-3.6,4c0,2.5,1.7,4,3.6,4c1.9,0,3.7-1.6,3.7-4C694.2,402.4,692.4,400.8,690.5,400.8z"/>
	<path class="st6" d="M714.6,410v-2.1c-0.8,1.2-2.1,2.3-4,2.3c-2.5,0-4.9-2-4.9-5.4c0-3.4,2.5-5.4,4.9-5.4c1.9,0,3.2,1,4,2.2v-6.2
		h1.5V410H714.6z M711,400.8c-2,0-3.6,1.5-3.6,4c0,2.5,1.7,4,3.6,4c1.9,0,3.7-1.6,3.7-4C714.7,402.4,712.9,400.8,711,400.8z"/>
	<path class="st6" d="M724.8,408.9c1.4,0,2.4-0.6,3.3-1.5l1,0.9c-1,1.2-2.3,1.9-4.3,1.9c-2.8,0-5.2-2.2-5.2-5.4c0-3,2.1-5.4,5-5.4
		c3.1,0,4.8,2.4,4.8,5.5c0,0.1,0,0.3,0,0.5h-8.2C721.4,407.6,723,408.9,724.8,408.9z M727.8,404.2c-0.2-1.9-1.2-3.5-3.3-3.5
		c-1.8,0-3.2,1.5-3.4,3.5H727.8z"/>
	<path class="st6" d="M736.1,410.2c-1.5,0-3.1-0.6-4.3-1.5l0.8-1.1c1.1,0.8,2.4,1.3,3.6,1.3c1.2,0,2.1-0.6,2.1-1.6v0
		c0-1-1.2-1.4-2.6-1.8c-1.6-0.5-3.4-1-3.4-2.9v0c0-1.8,1.5-3,3.5-3c1.3,0,2.7,0.4,3.7,1.1l-0.7,1.2c-1-0.6-2.1-1-3.1-1
		c-1.2,0-2,0.6-2,1.5v0c0,1,1.3,1.4,2.7,1.8c1.6,0.5,3.3,1.1,3.3,3v0C739.8,409,738.1,410.2,736.1,410.2z"/>
	<path class="st6" d="M743.3,397.4v-1.7h1.8v1.7H743.3z M743.4,410v-10.3h1.5V410H743.4z"/>
	<path class="st6" d="M753.7,413.2c-1.7,0-3.3-0.5-4.7-1.4l0.7-1.2c1.2,0.9,2.5,1.3,4,1.3c2.3,0,3.8-1.3,3.8-3.7V407
		c-0.9,1.2-2.2,2.2-4.1,2.2c-2.5,0-4.9-1.8-4.9-4.9c0-3,2.4-4.9,4.9-4.9c1.9,0,3.2,1,4,2.1v-1.9h1.5v8.5
		C758.9,411.5,756.8,413.2,753.7,413.2z M753.6,400.8c-2,0-3.6,1.3-3.6,3.5c0,2.1,1.7,3.5,3.6,3.5c2,0,3.8-1.4,3.8-3.5
		C757.4,402.2,755.6,400.8,753.6,400.8z"/>
	<path class="st6" d="M764.5,410H763v-10.3h1.5v1.8c0.7-1.1,1.8-2,3.5-2c2.5,0,4,1.7,4,4.1v6.4h-1.5v-6c0-1.9-1-3.1-2.9-3.1
		c-1.8,0-3.1,1.3-3.1,3.2V410z"/>
	<path class="st6" d="M776.4,410h-0.7v-2.1h1.8v1.8c0,1.6-0.7,2.4-2.2,2.7l-0.2-0.7C776.1,411.4,776.5,410.8,776.4,410z"/>
	<path class="st6" d="M796.3,410v-2.1c-0.8,1.2-2.1,2.3-4,2.3c-2.5,0-4.9-2-4.9-5.4c0-3.4,2.5-5.4,4.9-5.4c1.9,0,3.2,1,4,2.2v-6.2
		h1.5V410H796.3z M792.6,400.8c-2,0-3.6,1.5-3.6,4c0,2.5,1.7,4,3.6,4c1.9,0,3.7-1.6,3.7-4C796.3,402.4,794.5,400.8,792.6,400.8z"/>
	<path class="st6" d="M806.4,408.9c1.4,0,2.4-0.6,3.3-1.5l1,0.9c-1,1.2-2.3,1.9-4.3,1.9c-2.8,0-5.2-2.2-5.2-5.4c0-3,2.1-5.4,5-5.4
		c3.1,0,4.8,2.4,4.8,5.5c0,0.1,0,0.3,0,0.5h-8.2C803,407.6,804.6,408.9,806.4,408.9z M809.4,404.2c-0.2-1.9-1.2-3.5-3.3-3.5
		c-1.8,0-3.2,1.5-3.4,3.5H809.4z"/>
	<path class="st6" d="M821.5,399.6h1.7l-4.5,10.4h-1.4l-4.5-10.4h1.7l3.5,8.6L821.5,399.6z"/>
	<path class="st6" d="M830.1,408.9c1.4,0,2.4-0.6,3.3-1.5l1,0.9c-1,1.2-2.3,1.9-4.3,1.9c-2.8,0-5.2-2.2-5.2-5.4c0-3,2.1-5.4,5-5.4
		c3.1,0,4.8,2.4,4.8,5.5c0,0.1,0,0.3,0,0.5h-8.2C826.7,407.6,828.3,408.9,830.1,408.9z M833.1,404.2c-0.2-1.9-1.2-3.5-3.3-3.5
		c-1.8,0-3.2,1.5-3.4,3.5H833.1z"/>
	<path class="st6" d="M838.1,410v-14.6h1.5V410H838.1z"/>
	<path class="st6" d="M848.6,410.2c-3.1,0-5.4-2.4-5.4-5.4s2.3-5.4,5.4-5.4c3.1,0,5.4,2.4,5.4,5.4
		C854,407.7,851.7,410.2,848.6,410.2z M848.6,400.8c-2.2,0-3.8,1.8-3.8,4c0,2.2,1.6,4,3.8,4c2.2,0,3.8-1.8,3.8-4
		C852.4,402.6,850.7,400.8,848.6,400.8z"/>
	<path class="st6" d="M862.9,410.2c-1.9,0-3.2-1-4-2.2v5.2h-1.5v-13.5h1.5v2.1c0.8-1.2,2.1-2.3,4-2.3c2.5,0,4.9,2,4.9,5.4
		C867.8,408.2,865.4,410.2,862.9,410.2z M862.6,400.8c-1.9,0-3.7,1.6-3.7,4c0,2.4,1.8,4,3.7,4c2,0,3.6-1.5,3.6-4
		C866.2,402.4,864.5,400.8,862.6,400.8z"/>
	<path class="st6" d="M883.1,399.4c2.4,0,3.8,1.6,3.8,4.2v6.4h-1.5v-6c0-2-1-3.1-2.7-3.1c-1.6,0-2.9,1.2-2.9,3.2v6h-1.5v-6.1
		c0-1.9-1-3.1-2.7-3.1s-2.9,1.4-2.9,3.3v5.9h-1.5v-10.3h1.5v1.7c0.7-1,1.6-2,3.3-2c1.7,0,2.8,0.9,3.3,2.1
		C880.2,400.3,881.3,399.4,883.1,399.4z"/>
	<path class="st6" d="M895.4,408.9c1.4,0,2.4-0.6,3.3-1.5l1,0.9c-1,1.2-2.3,1.9-4.3,1.9c-2.8,0-5.2-2.2-5.2-5.4c0-3,2.1-5.4,5-5.4
		c3.1,0,4.8,2.4,4.8,5.5c0,0.1,0,0.3,0,0.5h-8.2C892,407.6,893.6,408.9,895.4,408.9z M898.4,404.2c-0.2-1.9-1.2-3.5-3.3-3.5
		c-1.8,0-3.2,1.5-3.4,3.5H898.4z"/>
	<path class="st6" d="M904.8,410h-1.5v-10.3h1.5v1.8c0.7-1.1,1.8-2,3.5-2c2.5,0,4,1.7,4,4.1v6.4h-1.5v-6c0-1.9-1-3.1-2.9-3.1
		c-1.8,0-3.1,1.3-3.1,3.2V410z"/>
	<path class="st6" d="M918.3,407c0,1.3,0.7,1.7,1.7,1.7c0.5,0,1-0.1,1.5-0.4v1.3c-0.5,0.3-1.1,0.4-1.9,0.4c-1.7,0-2.9-0.8-2.9-2.9
		V401h-1.4v-1.4h1.4v-3.1h1.5v3.1h3.3v1.4h-3.3V407z"/>
	<path class="st6" d="M932.1,401.6l-0.5-1.3c1.1-0.5,2.3-0.9,3.8-0.9c2.8,0,4.4,1.4,4.4,4.2v6.3h-1.5v-1.6c-0.7,0.9-1.9,1.8-3.7,1.8
		c-1.9,0-3.9-1.1-3.9-3.2c0-2.2,1.8-3.4,4.4-3.4c1.3,0,2.3,0.2,3.2,0.4v-0.4c0-1.9-1.1-2.8-3.1-2.8
		C934,400.9,933.1,401.2,932.1,401.6z M932.3,406.9c0,1.3,1.2,2.1,2.6,2.1c1.9,0,3.5-1.2,3.5-2.8v-1c-0.8-0.2-1.8-0.4-3-0.4
		C933.4,404.7,932.3,405.6,932.3,406.9z"/>
	<path class="st6" d="M945.2,410h-1.5v-10.3h1.5v1.8c0.7-1.1,1.8-2,3.5-2c2.5,0,4,1.7,4,4.1v6.4h-1.5v-6c0-1.9-1-3.1-2.9-3.1
		c-1.8,0-3.1,1.3-3.1,3.2V410z"/>
	<path class="st6" d="M964.9,410v-2.1c-0.8,1.2-2.1,2.3-4,2.3c-2.5,0-4.9-2-4.9-5.4c0-3.4,2.5-5.4,4.9-5.4c1.9,0,3.2,1,4,2.2v-6.2
		h1.5V410H964.9z M961.2,400.8c-2,0-3.6,1.5-3.6,4c0,2.5,1.7,4,3.6,4c1.9,0,3.7-1.6,3.7-4C965,402.4,963.1,400.8,961.2,400.8z"/>
	<path class="st6" d="M361.9,421.4v-1.7h1.8v1.7H361.9z M362,434v-10.3h1.5V434H362z"/>
	<path class="st6" d="M369.3,434h-1.5v-10.3h1.5v1.8c0.7-1.1,1.8-2,3.5-2c2.5,0,4,1.7,4,4.1v6.4h-1.5v-6c0-1.9-1-3.1-2.9-3.1
		c-1.8,0-3.1,1.3-3.1,3.2V434z"/>
	<path class="st6" d="M382.7,431c0,1.3,0.7,1.7,1.7,1.7c0.5,0,1-0.1,1.5-0.4v1.3c-0.5,0.3-1.1,0.4-1.9,0.4c-1.7,0-2.9-0.8-2.9-2.9
		V425h-1.4v-1.4h1.4v-3.1h1.5v3.1h3.3v1.4h-3.3V431z"/>
	<path class="st6" d="M393.6,432.9c1.4,0,2.4-0.6,3.3-1.5l1,0.9c-1,1.2-2.3,1.9-4.3,1.9c-2.8,0-5.2-2.2-5.2-5.4c0-3,2.1-5.4,5-5.4
		c3.1,0,4.8,2.4,4.8,5.5c0,0.1,0,0.3,0,0.5H390C390.2,431.6,391.8,432.9,393.6,432.9z M396.6,428.2c-0.2-1.9-1.2-3.5-3.3-3.5
		c-1.8,0-3.2,1.5-3.4,3.5H396.6z"/>
	<path class="st6" d="M403,434h-1.5v-10.3h1.5v2.7c0.8-1.7,2.3-3,4.2-2.9v1.7h-0.1c-2.3,0-4.1,1.6-4.1,4.7V434z"/>
	<path class="st6" d="M410.3,425.6l-0.5-1.3c1.1-0.5,2.3-0.9,3.8-0.9c2.8,0,4.4,1.4,4.4,4.2v6.3h-1.5v-1.6c-0.7,0.9-1.9,1.8-3.7,1.8
		c-1.9,0-3.9-1.1-3.9-3.2c0-2.2,1.8-3.4,4.4-3.4c1.3,0,2.3,0.2,3.2,0.4v-0.4c0-1.9-1.1-2.8-3.1-2.8
		C412.2,424.9,411.2,425.2,410.3,425.6z M410.5,430.9c0,1.3,1.2,2.1,2.6,2.1c1.9,0,3.5-1.2,3.5-2.8v-1c-0.8-0.2-1.8-0.4-3-0.4
		C411.5,428.7,410.5,429.6,410.5,430.9z"/>
	<path class="st6" d="M426.5,434.2c-3,0-5.3-2.5-5.3-5.4c0-2.9,2.3-5.4,5.3-5.4c2,0,3.2,0.8,4.1,1.8l-1,1.1
		c-0.8-0.9-1.7-1.6-3.1-1.6c-2.1,0-3.7,1.8-3.7,4c0,2.3,1.6,4,3.8,4c1.3,0,2.3-0.7,3.2-1.5l1,0.9
		C429.7,433.4,428.5,434.2,426.5,434.2z"/>
	<path class="st6" d="M436,431c0,1.3,0.7,1.7,1.7,1.7c0.5,0,1-0.1,1.5-0.4v1.3c-0.5,0.3-1.1,0.4-1.9,0.4c-1.7,0-2.9-0.8-2.9-2.9V425
		H433v-1.4h1.4v-3.1h1.5v3.1h3.3v1.4H436V431z"/>
	<path class="st6" d="M442.6,421.4v-1.7h1.8v1.7H442.6z M442.7,434v-10.3h1.5V434H442.7z"/>
	<path class="st6" d="M456.1,423.6h1.7l-4.5,10.4h-1.4l-4.5-10.4h1.7l3.5,8.6L456.1,423.6z"/>
	<path class="st6" d="M464.7,432.9c1.4,0,2.4-0.6,3.3-1.5l1,0.9c-1,1.2-2.3,1.9-4.3,1.9c-2.8,0-5.2-2.2-5.2-5.4c0-3,2.1-5.4,5-5.4
		c3.1,0,4.8,2.4,4.8,5.5c0,0.1,0,0.3,0,0.5h-8.2C461.3,431.6,462.9,432.9,464.7,432.9z M467.7,428.2c-0.2-1.9-1.2-3.5-3.3-3.5
		c-1.8,0-3.2,1.5-3.4,3.5H467.7z"/>
	<path class="st6" d="M491,423.4c2.4,0,3.8,1.6,3.8,4.2v6.4h-1.5v-6c0-2-1-3.1-2.7-3.1c-1.6,0-2.9,1.2-2.9,3.2v6h-1.5v-6.1
		c0-1.9-1-3.1-2.7-3.1c-1.6,0-2.9,1.4-2.9,3.3v5.9h-1.5v-10.3h1.5v1.7c0.7-1,1.6-2,3.3-2c1.7,0,2.8,0.9,3.3,2.1
		C488.1,424.3,489.2,423.4,491,423.4z"/>
	<path class="st6" d="M503.4,432.9c1.4,0,2.4-0.6,3.3-1.5l1,0.9c-1,1.2-2.3,1.9-4.3,1.9c-2.8,0-5.2-2.2-5.2-5.4c0-3,2.1-5.4,5-5.4
		c3.1,0,4.8,2.4,4.8,5.5c0,0.1,0,0.3,0,0.5h-8.2C500,431.6,501.6,432.9,503.4,432.9z M506.4,428.2c-0.2-1.9-1.2-3.5-3.3-3.5
		c-1.8,0-3.2,1.5-3.4,3.5H506.4z"/>
	<path class="st6" d="M519.6,434v-2.1c-0.8,1.2-2.1,2.3-4,2.3c-2.5,0-4.9-2-4.9-5.4c0-3.4,2.5-5.4,4.9-5.4c1.9,0,3.2,1,4,2.2v-6.2
		h1.5V434H519.6z M515.9,424.8c-2,0-3.6,1.5-3.6,4c0,2.5,1.7,4,3.6,4c1.9,0,3.7-1.6,3.7-4C519.6,426.4,517.8,424.8,515.9,424.8z"/>
	<path class="st6" d="M525.2,421.4v-1.7h1.8v1.7H525.2z M525.3,434v-10.3h1.5V434H525.3z"/>
	<path class="st6" d="M531.6,425.6l-0.5-1.3c1.1-0.5,2.3-0.9,3.8-0.9c2.8,0,4.4,1.4,4.4,4.2v6.3h-1.5v-1.6c-0.7,0.9-1.9,1.8-3.7,1.8
		c-1.9,0-3.9-1.1-3.9-3.2c0-2.2,1.8-3.4,4.4-3.4c1.3,0,2.3,0.2,3.2,0.4v-0.4c0-1.9-1.1-2.8-3.1-2.8
		C533.5,424.9,532.6,425.2,531.6,425.6z M531.8,430.9c0,1.3,1.2,2.1,2.6,2.1c1.9,0,3.5-1.2,3.5-2.8v-1c-0.8-0.2-1.8-0.4-3-0.4
		C532.9,428.7,531.8,429.6,531.8,430.9z"/>
	<path class="st6" d="M549.8,421.4v-1.7h1.8v1.7H549.8z M549.9,434v-10.3h1.5V434H549.9z"/>
	<path class="st6" d="M557.2,434h-1.5v-10.3h1.5v1.8c0.7-1.1,1.8-2,3.5-2c2.5,0,4,1.7,4,4.1v6.4h-1.5v-6c0-1.9-1-3.1-2.9-3.1
		c-1.8,0-3.1,1.3-3.1,3.2V434z"/>
	<path class="st6" d="M570.6,431c0,1.3,0.7,1.7,1.7,1.7c0.5,0,1-0.1,1.5-0.4v1.3c-0.5,0.3-1.1,0.4-1.9,0.4c-1.7,0-2.9-0.8-2.9-2.9
		V425h-1.4v-1.4h1.4v-3.1h1.5v3.1h3.3v1.4h-3.3V431z"/>
	<path class="st6" d="M581.7,434.2c-3.1,0-5.4-2.4-5.4-5.4s2.3-5.4,5.4-5.4c3.1,0,5.4,2.4,5.4,5.4
		C587.1,431.7,584.8,434.2,581.7,434.2z M581.7,424.8c-2.2,0-3.8,1.8-3.8,4c0,2.2,1.6,4,3.8,4c2.2,0,3.8-1.8,3.8-4
		C585.5,426.6,583.8,424.8,581.7,424.8z"/>
	<path class="st6" d="M597.7,425.6l-0.5-1.3c1.1-0.5,2.3-0.9,3.8-0.9c2.8,0,4.4,1.4,4.4,4.2v6.3h-1.5v-1.6c-0.7,0.9-1.9,1.8-3.7,1.8
		c-1.9,0-3.9-1.1-3.9-3.2c0-2.2,1.8-3.4,4.4-3.4c1.3,0,2.3,0.2,3.2,0.4v-0.4c0-1.9-1.1-2.8-3.1-2.8
		C599.6,424.9,598.6,425.2,597.7,425.6z M597.8,430.9c0,1.3,1.2,2.1,2.6,2.1c1.9,0,3.5-1.2,3.5-2.8v-1c-0.8-0.2-1.8-0.4-3-0.4
		C598.9,428.7,597.8,429.6,597.8,430.9z"/>
	<path class="st6" d="M610.8,434h-1.5v-10.3h1.5v1.8c0.7-1.1,1.8-2,3.5-2c2.5,0,4,1.7,4,4.1v6.4h-1.5v-6c0-1.9-1-3.1-2.9-3.1
		c-1.8,0-3.1,1.3-3.1,3.2V434z"/>
	<path class="st6" d="M628.8,421.4v-1.7h1.8v1.7H628.8z M628.9,434v-10.3h1.5V434H628.9z"/>
	<path class="st6" d="M636.2,434h-1.5v-10.3h1.5v1.8c0.7-1.1,1.8-2,3.5-2c2.5,0,4,1.7,4,4.1v6.4h-1.5v-6c0-1.9-1-3.1-2.9-3.1
		c-1.8,0-3.1,1.3-3.1,3.2V434z"/>
	<path class="st6" d="M655.8,434v-2.1c-0.8,1.2-2.1,2.3-4,2.3c-2.5,0-4.9-2-4.9-5.4c0-3.4,2.5-5.4,4.9-5.4c1.9,0,3.2,1,4,2.2v-6.2
		h1.5V434H655.8z M652.2,424.8c-2,0-3.6,1.5-3.6,4c0,2.5,1.7,4,3.6,4c1.9,0,3.7-1.6,3.7-4C655.9,426.4,654.1,424.8,652.2,424.8z"/>
	<path class="st6" d="M668.8,423.6h1.5V434h-1.5v-1.8c-0.7,1.1-1.8,2-3.5,2c-2.5,0-4-1.7-4-4.1v-6.4h1.5v6c0,1.9,1,3.1,2.9,3.1
		c1.8,0,3.1-1.3,3.1-3.2V423.6z"/>
	<path class="st6" d="M677.8,434.2c-1.5,0-3.1-0.6-4.3-1.5l0.8-1.1c1.1,0.8,2.4,1.3,3.6,1.3c1.2,0,2.1-0.6,2.1-1.6v0
		c0-1-1.2-1.4-2.6-1.8c-1.6-0.5-3.4-1-3.4-2.9v0c0-1.8,1.5-3,3.5-3c1.3,0,2.7,0.4,3.7,1.1l-0.7,1.2c-1-0.6-2.1-1-3.1-1
		c-1.2,0-2,0.6-2,1.5v0c0,1,1.3,1.4,2.7,1.8c1.6,0.5,3.3,1.1,3.3,3v0C681.4,433,679.8,434.2,677.8,434.2z"/>
	<path class="st6" d="M686.8,431c0,1.3,0.7,1.7,1.7,1.7c0.5,0,1-0.1,1.5-0.4v1.3c-0.5,0.3-1.1,0.4-1.9,0.4c-1.7,0-2.9-0.8-2.9-2.9
		V425h-1.4v-1.4h1.4v-3.1h1.5v3.1h3.3v1.4h-3.3V431z"/>
	<path class="st6" d="M694.9,434h-1.5v-10.3h1.5v2.7c0.8-1.7,2.3-3,4.2-2.9v1.7H699c-2.3,0-4.1,1.6-4.1,4.7V434z"/>
	<path class="st6" d="M707.1,434.3c-0.9,2.1-1.9,2.9-3.4,2.9c-0.9,0-1.5-0.2-2.2-0.5l0.5-1.2c0.5,0.3,1,0.4,1.6,0.4
		c0.9,0,1.5-0.5,2.1-1.9l-4.7-10.3h1.7l3.8,8.6l3.3-8.6h1.6L707.1,434.3z"/>
	<path class="st6" d="M722.6,434h-1.5v-10.3h1.5v2.7c0.8-1.7,2.3-3,4.2-2.9v1.7h-0.1c-2.3,0-4.1,1.6-4.1,4.7V434z"/>
	<path class="st6" d="M733.9,432.9c1.4,0,2.4-0.6,3.3-1.5l1,0.9c-1,1.2-2.3,1.9-4.3,1.9c-2.8,0-5.2-2.2-5.2-5.4c0-3,2.1-5.4,5-5.4
		c3.1,0,4.8,2.4,4.8,5.5c0,0.1,0,0.3,0,0.5h-8.2C730.5,431.6,732.1,432.9,733.9,432.9z M736.9,428.2c-0.2-1.9-1.2-3.5-3.3-3.5
		c-1.8,0-3.2,1.5-3.4,3.5H736.9z"/>
	<path class="st6" d="M742.4,425.6l-0.5-1.3c1.1-0.5,2.3-0.9,3.8-0.9c2.8,0,4.4,1.4,4.4,4.2v6.3h-1.5v-1.6c-0.7,0.9-1.9,1.8-3.7,1.8
		c-1.9,0-3.9-1.1-3.9-3.2c0-2.2,1.8-3.4,4.4-3.4c1.3,0,2.3,0.2,3.2,0.4v-0.4c0-1.9-1.1-2.8-3.1-2.8
		C744.3,424.9,743.4,425.2,742.4,425.6z M742.6,430.9c0,1.3,1.2,2.1,2.6,2.1c1.9,0,3.5-1.2,3.5-2.8v-1c-0.8-0.2-1.8-0.4-3-0.4
		C743.7,428.7,742.6,429.6,742.6,430.9z"/>
	<path class="st6" d="M762.3,434v-2.1c-0.8,1.2-2.1,2.3-4,2.3c-2.5,0-4.9-2-4.9-5.4c0-3.4,2.5-5.4,4.9-5.4c1.9,0,3.2,1,4,2.2v-6.2
		h1.5V434H762.3z M758.6,424.8c-2,0-3.6,1.5-3.6,4c0,2.5,1.7,4,3.6,4c1.9,0,3.7-1.6,3.7-4C762.3,426.4,760.5,424.8,758.6,424.8z"/>
	<path class="st6" d="M772.9,434.3c-0.9,2.1-1.9,2.9-3.4,2.9c-0.9,0-1.5-0.2-2.2-0.5l0.5-1.2c0.5,0.3,1,0.4,1.6,0.4
		c0.9,0,1.5-0.5,2.1-1.9l-4.7-10.3h1.7l3.8,8.6l3.3-8.6h1.6L772.9,434.3z"/>
	<path class="st6" d="M792.4,434.2c-1.9,0-3.2-1-4-2.2v5.2h-1.5v-13.5h1.5v2.1c0.8-1.2,2.1-2.3,4-2.3c2.5,0,4.9,2,4.9,5.4
		C797.3,432.2,794.9,434.2,792.4,434.2z M792.1,424.8c-1.9,0-3.7,1.6-3.7,4c0,2.4,1.8,4,3.7,4c2,0,3.6-1.5,3.6-4
		C795.7,426.4,794.1,424.8,792.1,424.8z"/>
	<path class="st6" d="M805.5,434.2c-3.1,0-5.4-2.4-5.4-5.4s2.3-5.4,5.4-5.4c3.1,0,5.4,2.4,5.4,5.4
		C810.9,431.7,808.6,434.2,805.5,434.2z M805.5,424.8c-2.2,0-3.8,1.8-3.8,4c0,2.2,1.6,4,3.8,4c2.2,0,3.8-1.8,3.8-4
		C809.3,426.6,807.7,424.8,805.5,424.8z"/>
	<path class="st6" d="M815.8,434h-1.5v-10.3h1.5v2.7c0.8-1.7,2.3-3,4.2-2.9v1.7h-0.1c-2.3,0-4.1,1.6-4.1,4.7V434z"/>
	<path class="st6" d="M825.1,431c0,1.3,0.7,1.7,1.7,1.7c0.5,0,1-0.1,1.5-0.4v1.3c-0.5,0.3-1.1,0.4-1.9,0.4c-1.7,0-2.9-0.8-2.9-2.9
		V425h-1.4v-1.4h1.4v-3.1h1.5v3.1h3.3v1.4h-3.3V431z"/>
	<path class="st6" d="M837,423.7v1.3h-3.3v9h-1.5v-9h-1.4v-1.3h1.4v-0.9c0-2.3,1.1-3.5,3.1-3.5c0.7,0,1.2,0.1,1.7,0.3v1.3
		c-0.6-0.2-1-0.3-1.5-0.3c-1.2,0-1.8,0.7-1.8,2.2v0.8H837z"/>
	<path class="st6" d="M844.1,434.2c-3.1,0-5.4-2.4-5.4-5.4s2.3-5.4,5.4-5.4c3.1,0,5.4,2.4,5.4,5.4
		C849.5,431.7,847.2,434.2,844.1,434.2z M844.1,424.8c-2.2,0-3.8,1.8-3.8,4c0,2.2,1.6,4,3.8,4c2.2,0,3.8-1.8,3.8-4
		C848,426.6,846.3,424.8,844.1,424.8z"/>
	<path class="st6" d="M853.1,434v-14.6h1.5V434H853.1z"/>
	<path class="st6" d="M858.8,421.4v-1.7h1.8v1.7H858.8z M858.9,434v-10.3h1.5V434H858.9z"/>
	<path class="st6" d="M869.4,434.2c-3.1,0-5.4-2.4-5.4-5.4s2.3-5.4,5.4-5.4c3.1,0,5.4,2.4,5.4,5.4
		C874.8,431.7,872.5,434.2,869.4,434.2z M869.4,424.8c-2.2,0-3.8,1.8-3.8,4c0,2.2,1.6,4,3.8,4c2.2,0,3.8-1.8,3.8-4
		C873.2,426.6,871.5,424.8,869.4,424.8z"/>
	<path class="st6" d="M888.2,434.2c-1.5,0-3.1-0.6-4.3-1.5l0.8-1.1c1.1,0.8,2.4,1.3,3.6,1.3c1.2,0,2.1-0.6,2.1-1.6v0
		c0-1-1.2-1.4-2.6-1.8c-1.6-0.5-3.4-1-3.4-2.9v0c0-1.8,1.5-3,3.5-3c1.3,0,2.7,0.4,3.7,1.1l-0.7,1.2c-1-0.6-2.1-1-3.1-1
		c-1.2,0-2,0.6-2,1.5v0c0,1,1.3,1.4,2.7,1.8c1.6,0.5,3.3,1.1,3.3,3v0C891.9,433,890.2,434.2,888.2,434.2z"/>
	<path class="st6" d="M896.8,434h-1.5v-14.6h1.5v6.1c0.7-1.1,1.8-2,3.5-2c2.5,0,4,1.7,4,4.1v6.4h-1.5v-6c0-1.9-1-3.1-2.9-3.1
		c-1.8,0-3.1,1.3-3.1,3.2V434z"/>
	<path class="st6" d="M913,434.2c-3.1,0-5.4-2.4-5.4-5.4s2.3-5.4,5.4-5.4c3.1,0,5.4,2.4,5.4,5.4C918.4,431.7,916.1,434.2,913,434.2z
		 M913,424.8c-2.2,0-3.8,1.8-3.8,4c0,2.2,1.6,4,3.8,4c2.2,0,3.8-1.8,3.8-4C916.8,426.6,915.1,424.8,913,424.8z"/>
	<path class="st6" d="M931.6,431.9l2.7-8.3h1.6l-3.6,10.4h-1.3l-2.8-8.2l-2.8,8.2H924l-3.6-10.4h1.6l2.7,8.3l2.8-8.3h1.3
		L931.6,431.9z"/>
	<path class="st6" d="M937.5,434v-2.1h1.8v2.1H937.5z"/>
</g>
<g class="st4">
	<path class="st6" d="M358.5,290L358.5,290l-5.2-7.5v11.3h-1.5v-14h1.6l5.1,7.6l5.1-7.6h1.6v14h-1.6v-11.3L358.5,290z"/>
	<path class="st6" d="M374.2,294.1c-3.1,0-5.4-2.4-5.4-5.4s2.3-5.4,5.4-5.4c3.1,0,5.4,2.4,5.4,5.4
		C379.6,291.6,377.3,294.1,374.2,294.1z M374.2,284.7c-2.2,0-3.8,1.8-3.8,4c0,2.2,1.6,4,3.8,4c2.2,0,3.8-1.8,3.8-4
		C378,286.5,376.4,284.7,374.2,284.7z"/>
	<path class="st6" d="M384.5,293.9H383v-10.3h1.5v2.7c0.8-1.7,2.3-3,4.2-2.9v1.7h-0.1c-2.3,0-4.1,1.6-4.1,4.7V293.9z"/>
	<path class="st6" d="M395.8,292.8c1.4,0,2.4-0.6,3.3-1.5l1,0.9c-1,1.2-2.3,1.9-4.3,1.9c-2.8,0-5.2-2.2-5.2-5.4c0-3,2.1-5.4,5-5.4
		c3.1,0,4.8,2.4,4.8,5.5c0,0.1,0,0.3,0,0.5h-8.2C392.4,291.5,394,292.8,395.8,292.8z M398.8,288.1c-0.2-1.9-1.2-3.5-3.3-3.5
		c-1.8,0-3.2,1.5-3.4,3.5H398.8z"/>
	<path class="st6" d="M410.3,281.3v-1.7h1.8v1.7H410.3z M410.4,293.9v-10.3h1.5v10.3H410.4z"/>
	<path class="st6" d="M417.7,293.9h-1.5v-10.3h1.5v1.8c0.7-1.1,1.8-2,3.5-2c2.5,0,4,1.7,4,4.1v6.4h-1.5v-6c0-1.9-1-3.1-2.9-3.1
		c-1.8,0-3.1,1.3-3.1,3.2V293.9z"/>
	<path class="st6" d="M434.5,283.6v1.3h-3.3v9h-1.5v-9h-1.4v-1.3h1.4v-0.9c0-2.3,1.1-3.5,3.1-3.5c0.7,0,1.2,0.1,1.7,0.3v1.3
		c-0.6-0.2-1-0.3-1.5-0.3c-1.2,0-1.8,0.7-1.8,2.2v0.8H434.5z"/>
	<path class="st6" d="M441.5,294.1c-3.1,0-5.4-2.4-5.4-5.4s2.3-5.4,5.4-5.4c3.1,0,5.4,2.4,5.4,5.4
		C447,291.6,444.7,294.1,441.5,294.1z M441.5,284.7c-2.2,0-3.8,1.8-3.8,4c0,2.2,1.6,4,3.8,4c2.2,0,3.8-1.8,3.8-4
		C445.4,286.5,443.7,284.7,441.5,284.7z"/>
	<path class="st6" d="M451.9,293.9h-1.5v-10.3h1.5v2.7c0.8-1.7,2.3-3,4.2-2.9v1.7H456c-2.3,0-4.1,1.6-4.1,4.7V293.9z"/>
	<path class="st6" d="M470.9,283.3c2.4,0,3.8,1.6,3.8,4.2v6.4h-1.5v-6c0-2-1-3.1-2.7-3.1c-1.6,0-2.9,1.2-2.9,3.2v6h-1.5v-6.1
		c0-1.9-1-3.1-2.7-3.1c-1.6,0-2.9,1.4-2.9,3.3v5.9H459v-10.3h1.5v1.7c0.7-1,1.6-2,3.3-2c1.7,0,2.8,0.9,3.3,2.1
		C468,284.2,469.1,283.3,470.9,283.3z"/>
	<path class="st6" d="M479.3,285.5l-0.5-1.3c1.1-0.5,2.3-0.9,3.8-0.9c2.8,0,4.4,1.4,4.4,4.2v6.3h-1.5v-1.6c-0.7,0.9-1.9,1.8-3.7,1.8
		c-1.9,0-3.9-1.1-3.9-3.2c0-2.2,1.8-3.4,4.4-3.4c1.3,0,2.3,0.2,3.2,0.4v-0.4c0-1.9-1.1-2.8-3.1-2.8
		C481.2,284.8,480.2,285.1,479.3,285.5z M479.4,290.8c0,1.3,1.2,2.1,2.6,2.1c1.9,0,3.5-1.2,3.5-2.8v-1c-0.8-0.2-1.8-0.4-3-0.4
		C480.5,288.6,479.4,289.5,479.4,290.8z"/>
	<path class="st6" d="M492.8,290.9c0,1.3,0.7,1.7,1.7,1.7c0.5,0,1-0.1,1.5-0.4v1.3c-0.5,0.3-1.1,0.4-1.9,0.4c-1.7,0-2.9-0.8-2.9-2.9
		v-6.2h-1.4v-1.4h1.4v-3.1h1.5v3.1h3.3v1.4h-3.3V290.9z"/>
	<path class="st6" d="M499.5,281.3v-1.7h1.8v1.7H499.5z M499.6,293.9v-10.3h1.5v10.3H499.6z"/>
	<path class="st6" d="M510,294.1c-3.1,0-5.4-2.4-5.4-5.4s2.3-5.4,5.4-5.4c3.1,0,5.4,2.4,5.4,5.4C515.4,291.6,513.1,294.1,510,294.1z
		 M510,284.7c-2.2,0-3.8,1.8-3.8,4c0,2.2,1.6,4,3.8,4c2.2,0,3.8-1.8,3.8-4C513.8,286.5,512.2,284.7,510,284.7z"/>
	<path class="st6" d="M520.3,293.9h-1.5v-10.3h1.5v1.8c0.7-1.1,1.8-2,3.5-2c2.5,0,4,1.7,4,4.1v6.4h-1.5v-6c0-1.9-1-3.1-2.9-3.1
		c-1.8,0-3.1,1.3-3.1,3.2V293.9z"/>
	<path class="st6" d="M538.9,285.5l-0.5-1.3c1.1-0.5,2.3-0.9,3.8-0.9c2.8,0,4.4,1.4,4.4,4.2v6.3h-1.5v-1.6c-0.7,0.9-1.9,1.8-3.7,1.8
		c-1.9,0-3.9-1.1-3.9-3.2c0-2.2,1.8-3.4,4.4-3.4c1.3,0,2.3,0.2,3.2,0.4v-0.4c0-1.9-1.1-2.8-3.1-2.8
		C540.8,284.8,539.9,285.1,538.9,285.5z M539.1,290.8c0,1.3,1.2,2.1,2.6,2.1c1.9,0,3.5-1.2,3.5-2.8v-1c-0.8-0.2-1.8-0.4-3-0.4
		C540.2,288.6,539.1,289.5,539.1,290.8z"/>
	<path class="st6" d="M556,294.1c-1.9,0-3.2-1-4-2.2v2h-1.5v-14.6h1.5v6.3c0.8-1.2,2.1-2.3,4-2.3c2.5,0,4.9,2,4.9,5.4
		C560.9,292.1,558.5,294.1,556,294.1z M555.7,284.7c-1.9,0-3.7,1.6-3.7,4c0,2.4,1.8,4,3.7,4c2,0,3.6-1.5,3.6-4
		C559.4,286.3,557.7,284.7,555.7,284.7z"/>
	<path class="st6" d="M569.1,294.1c-3.1,0-5.4-2.4-5.4-5.4s2.3-5.4,5.4-5.4c3.1,0,5.4,2.4,5.4,5.4
		C574.5,291.6,572.2,294.1,569.1,294.1z M569.1,284.7c-2.2,0-3.8,1.8-3.8,4c0,2.2,1.6,4,3.8,4c2.2,0,3.8-1.8,3.8-4
		C572.9,286.5,571.3,284.7,569.1,284.7z"/>
	<path class="st6" d="M585.2,283.5h1.5v10.3h-1.5v-1.8c-0.7,1.1-1.8,2-3.5,2c-2.5,0-4-1.7-4-4.1v-6.4h1.5v6c0,1.9,1,3.1,2.9,3.1
		c1.8,0,3.1-1.3,3.1-3.2V283.5z"/>
	<path class="st6" d="M592.9,290.9c0,1.3,0.7,1.7,1.7,1.7c0.5,0,1-0.1,1.5-0.4v1.3c-0.5,0.3-1.1,0.4-1.9,0.4c-1.7,0-2.9-0.8-2.9-2.9
		v-6.2h-1.4v-1.4h1.4v-3.1h1.5v3.1h3.3v1.4h-3.3V290.9z"/>
	<path class="st6" d="M608.2,290.9c0,1.3,0.7,1.7,1.7,1.7c0.5,0,1-0.1,1.5-0.4v1.3c-0.5,0.3-1.1,0.4-1.9,0.4c-1.7,0-2.9-0.8-2.9-2.9
		v-6.2h-1.4v-1.4h1.4v-3.1h1.5v3.1h3.3v1.4h-3.3V290.9z"/>
	<path class="st6" d="M616.3,293.9h-1.5v-14.6h1.5v6.1c0.7-1.1,1.8-2,3.5-2c2.5,0,4,1.7,4,4.1v6.4h-1.5v-6c0-1.9-1-3.1-2.9-3.1
		c-1.8,0-3.1,1.3-3.1,3.2V293.9z"/>
	<path class="st6" d="M632.3,292.8c1.4,0,2.4-0.6,3.3-1.5l1,0.9c-1,1.2-2.3,1.9-4.3,1.9c-2.8,0-5.2-2.2-5.2-5.4c0-3,2.1-5.4,5-5.4
		c3.1,0,4.8,2.4,4.8,5.5c0,0.1,0,0.3,0,0.5h-8.2C628.8,291.5,630.4,292.8,632.3,292.8z M635.3,288.1c-0.2-1.9-1.2-3.5-3.3-3.5
		c-1.8,0-3.2,1.5-3.4,3.5H635.3z"/>
	<path class="st6" d="M648.8,290.9c0,1.3,0.7,1.7,1.7,1.7c0.5,0,1-0.1,1.5-0.4v1.3c-0.5,0.3-1.1,0.4-1.9,0.4c-1.7,0-2.9-0.8-2.9-2.9
		v-6.2h-1.4v-1.4h1.4v-3.1h1.5v3.1h3.3v1.4h-3.3V290.9z"/>
	<path class="st6" d="M657,293.9h-1.5v-14.6h1.5v6.1c0.7-1.1,1.8-2,3.5-2c2.5,0,4,1.7,4,4.1v6.4h-1.5v-6c0-1.9-1-3.1-2.9-3.1
		c-1.8,0-3.1,1.3-3.1,3.2V293.9z"/>
	<path class="st6" d="M672.9,292.8c1.4,0,2.4-0.6,3.3-1.5l1,0.9c-1,1.2-2.3,1.9-4.3,1.9c-2.8,0-5.2-2.2-5.2-5.4c0-3,2.1-5.4,5-5.4
		c3.1,0,4.8,2.4,4.8,5.5c0,0.1,0,0.3,0,0.5h-8.2C669.5,291.5,671.1,292.8,672.9,292.8z M675.9,288.1c-0.2-1.9-1.2-3.5-3.3-3.5
		c-1.8,0-3.2,1.5-3.4,3.5H675.9z"/>
	<path class="st6" d="M692.6,283.3c2.4,0,3.8,1.6,3.8,4.2v6.4h-1.5v-6c0-2-1-3.1-2.7-3.1c-1.6,0-2.9,1.2-2.9,3.2v6h-1.5v-6.1
		c0-1.9-1-3.1-2.7-3.1s-2.9,1.4-2.9,3.3v5.9h-1.5v-10.3h1.5v1.7c0.7-1,1.6-2,3.3-2c1.7,0,2.8,0.9,3.3,2.1
		C689.7,284.2,690.8,283.3,692.6,283.3z"/>
	<path class="st6" d="M705,292.8c1.4,0,2.4-0.6,3.3-1.5l1,0.9c-1,1.2-2.3,1.9-4.3,1.9c-2.8,0-5.2-2.2-5.2-5.4c0-3,2.1-5.4,5-5.4
		c3.1,0,4.8,2.4,4.8,5.5c0,0.1,0,0.3,0,0.5h-8.2C701.5,291.5,703.1,292.8,705,292.8z M708,288.1c-0.2-1.9-1.2-3.5-3.3-3.5
		c-1.8,0-3.2,1.5-3.4,3.5H708z"/>
	<path class="st6" d="M720,285.5l-0.5-1.3c1.1-0.5,2.3-0.9,3.8-0.9c2.8,0,4.4,1.4,4.4,4.2v6.3h-1.5v-1.6c-0.7,0.9-1.9,1.8-3.7,1.8
		c-1.9,0-3.9-1.1-3.9-3.2c0-2.2,1.8-3.4,4.4-3.4c1.3,0,2.3,0.2,3.2,0.4v-0.4c0-1.9-1.1-2.8-3.1-2.8C722,284.8,721,285.1,720,285.5z
		 M720.2,290.8c0,1.3,1.2,2.1,2.6,2.1c1.9,0,3.5-1.2,3.5-2.8v-1c-0.8-0.2-1.8-0.4-3-0.4C721.3,288.6,720.2,289.5,720.2,290.8z"/>
	<path class="st6" d="M733.2,293.9h-1.5v-10.3h1.5v1.8c0.7-1.1,1.8-2,3.5-2c2.5,0,4,1.7,4,4.1v6.4h-1.5v-6c0-1.9-1-3.1-2.9-3.1
		c-1.8,0-3.1,1.3-3.1,3.2V293.9z"/>
	<path class="st6" d="M752.8,293.9v-2.1c-0.8,1.2-2.1,2.3-4,2.3c-2.5,0-4.9-2-4.9-5.4c0-3.4,2.5-5.4,4.9-5.4c1.9,0,3.2,1,4,2.2v-6.2
		h1.5v14.6H752.8z M749.2,284.7c-2,0-3.6,1.5-3.6,4c0,2.5,1.7,4,3.6,4c1.9,0,3.7-1.6,3.7-4C752.9,286.3,751.1,284.7,749.2,284.7z"/>
	<path class="st6" d="M765.1,281.3v-1.7h1.8v1.7H765.1z M765.2,293.9v-10.3h1.5v10.3H765.2z"/>
	<path class="st6" d="M773,290.9c0,1.3,0.7,1.7,1.7,1.7c0.5,0,1-0.1,1.5-0.4v1.3c-0.5,0.3-1.1,0.4-1.9,0.4c-1.7,0-2.9-0.8-2.9-2.9
		v-6.2H770v-1.4h1.4v-3.1h1.5v3.1h3.3v1.4H773V290.9z"/>
	<path class="st6" d="M780.4,282h-0.7v-2.1h1.8v1.8c0,1.6-0.7,2.4-2.2,2.7l-0.2-0.7C780.1,283.3,780.5,282.8,780.4,282z"/>
	<path class="st6" d="M788.2,294.1c-1.5,0-3.1-0.6-4.3-1.5l0.8-1.1c1.1,0.8,2.4,1.3,3.6,1.3c1.2,0,2.1-0.6,2.1-1.6v0
		c0-1-1.2-1.4-2.6-1.8c-1.6-0.5-3.4-1-3.4-2.9v0c0-1.8,1.5-3,3.5-3c1.3,0,2.7,0.4,3.7,1.1l-0.7,1.2c-1-0.6-2.1-1-3.1-1
		c-1.2,0-2,0.6-2,1.5v0c0,1,1.3,1.4,2.7,1.8c1.6,0.5,3.3,1.1,3.3,3v0C791.8,292.9,790.2,294.1,788.2,294.1z"/>
	<path class="st6" d="M806.6,294.1c-3,0-5.3-2.5-5.3-5.4c0-2.9,2.3-5.4,5.3-5.4c2,0,3.2,0.8,4.1,1.8l-1,1.1
		c-0.8-0.9-1.7-1.6-3.1-1.6c-2.1,0-3.7,1.8-3.7,4c0,2.3,1.6,4,3.8,4c1.3,0,2.3-0.7,3.2-1.5l1,0.9
		C809.7,293.3,808.5,294.1,806.6,294.1z"/>
	<path class="st6" d="M818.3,294.1c-3.1,0-5.4-2.4-5.4-5.4s2.3-5.4,5.4-5.4c3.1,0,5.4,2.4,5.4,5.4
		C823.8,291.6,821.5,294.1,818.3,294.1z M818.3,284.7c-2.2,0-3.8,1.8-3.8,4c0,2.2,1.6,4,3.8,4c2.2,0,3.8-1.8,3.8-4
		C822.2,286.5,820.5,284.7,818.3,284.7z"/>
	<path class="st6" d="M828.7,293.9h-1.5v-10.3h1.5v1.8c0.7-1.1,1.8-2,3.5-2c2.5,0,4,1.7,4,4.1v6.4h-1.5v-6c0-1.9-1-3.1-2.9-3.1
		c-1.8,0-3.1,1.3-3.1,3.2V293.9z"/>
	<path class="st6" d="M841.6,293.9h-1.5v-10.3h1.5v1.8c0.7-1.1,1.8-2,3.5-2c2.5,0,4,1.7,4,4.1v6.4h-1.5v-6c0-1.9-1-3.1-2.9-3.1
		c-1.8,0-3.1,1.3-3.1,3.2V293.9z"/>
	<path class="st6" d="M857.5,292.8c1.4,0,2.4-0.6,3.3-1.5l1,0.9c-1,1.2-2.3,1.9-4.3,1.9c-2.8,0-5.2-2.2-5.2-5.4c0-3,2.1-5.4,5-5.4
		c3.1,0,4.8,2.4,4.8,5.5c0,0.1,0,0.3,0,0.5h-8.2C854.1,291.5,855.7,292.8,857.5,292.8z M860.6,288.1c-0.2-1.9-1.2-3.5-3.3-3.5
		c-1.8,0-3.2,1.5-3.4,3.5H860.6z"/>
	<path class="st6" d="M870.1,294.1c-3,0-5.3-2.5-5.3-5.4c0-2.9,2.3-5.4,5.3-5.4c2,0,3.2,0.8,4.1,1.8l-1,1.1
		c-0.8-0.9-1.7-1.6-3.1-1.6c-2.1,0-3.7,1.8-3.7,4c0,2.3,1.6,4,3.8,4c1.3,0,2.3-0.7,3.2-1.5l1,0.9C873.3,293.3,872,294.1,870.1,294.1
		z"/>
	<path class="st6" d="M879.5,290.9c0,1.3,0.7,1.7,1.7,1.7c0.5,0,1-0.1,1.5-0.4v1.3c-0.5,0.3-1.1,0.4-1.9,0.4c-1.7,0-2.9-0.8-2.9-2.9
		v-6.2h-1.4v-1.4h1.4v-3.1h1.5v3.1h3.3v1.4h-3.3V290.9z"/>
	<path class="st6" d="M886.2,281.3v-1.7h1.8v1.7H886.2z M886.3,293.9v-10.3h1.5v10.3H886.3z"/>
	<path class="st6" d="M896.7,294.1c-3.1,0-5.4-2.4-5.4-5.4s2.3-5.4,5.4-5.4c3.1,0,5.4,2.4,5.4,5.4
		C902.1,291.6,899.8,294.1,896.7,294.1z M896.7,284.7c-2.2,0-3.8,1.8-3.8,4c0,2.2,1.6,4,3.8,4c2.2,0,3.8-1.8,3.8-4
		C900.5,286.5,898.9,284.7,896.7,284.7z"/>
	<path class="st6" d="M907,293.9h-1.5v-10.3h1.5v1.8c0.7-1.1,1.8-2,3.5-2c2.5,0,4,1.7,4,4.1v6.4H913v-6c0-1.9-1-3.1-2.9-3.1
		c-1.8,0-3.1,1.3-3.1,3.2V293.9z"/>
	<path class="st6" d="M927.1,290.9c0,1.3,0.7,1.7,1.7,1.7c0.5,0,1-0.1,1.5-0.4v1.3c-0.5,0.3-1.1,0.4-1.9,0.4c-1.7,0-2.9-0.8-2.9-2.9
		v-6.2h-1.4v-1.4h1.4v-3.1h1.5v3.1h3.3v1.4h-3.3V290.9z"/>
	<path class="st6" d="M938.1,294.1c-3.1,0-5.4-2.4-5.4-5.4s2.3-5.4,5.4-5.4c3.1,0,5.4,2.4,5.4,5.4
		C943.5,291.6,941.2,294.1,938.1,294.1z M938.1,284.7c-2.2,0-3.8,1.8-3.8,4c0,2.2,1.6,4,3.8,4c2.2,0,3.8-1.8,3.8-4
		C942,286.5,940.3,284.7,938.1,284.7z"/>
	<path class="st6" d="M426.7,318.1c-3.1,0-5.4-2.4-5.4-5.4s2.3-5.4,5.4-5.4c3.1,0,5.4,2.4,5.4,5.4
		C432.1,315.6,429.8,318.1,426.7,318.1z M426.7,308.7c-2.2,0-3.8,1.8-3.8,4c0,2.2,1.6,4,3.8,4c2.2,0,3.8-1.8,3.8-4
		C430.5,310.5,428.8,308.7,426.7,308.7z"/>
	<path class="st6" d="M442.8,307.5h1.5v10.3h-1.5v-1.8c-0.7,1.1-1.8,2-3.5,2c-2.5,0-4-1.7-4-4.1v-6.4h1.5v6c0,1.9,1,3.1,2.9,3.1
		c1.8,0,3.1-1.3,3.1-3.2V307.5z"/>
	<path class="st6" d="M449.9,317.9h-1.5v-10.3h1.5v2.7c0.8-1.7,2.3-3,4.2-2.9v1.7H454c-2.3,0-4.1,1.6-4.1,4.7V317.9z"/>
	<path class="st6" d="M474,315.8l2.7-8.3h1.6l-3.6,10.4h-1.3l-2.8-8.2l-2.8,8.2h-1.4l-3.6-10.4h1.6l2.7,8.3l2.8-8.3h1.3L474,315.8z"
		/>
	<path class="st6" d="M485.7,318.1c-3.1,0-5.4-2.4-5.4-5.4s2.3-5.4,5.4-5.4c3.1,0,5.4,2.4,5.4,5.4
		C491.1,315.6,488.8,318.1,485.7,318.1z M485.7,308.7c-2.2,0-3.8,1.8-3.8,4c0,2.2,1.6,4,3.8,4c2.2,0,3.8-1.8,3.8-4
		C489.6,310.5,487.9,308.7,485.7,308.7z"/>
	<path class="st6" d="M496.1,317.9h-1.5v-10.3h1.5v2.7c0.8-1.7,2.3-3,4.2-2.9v1.7h-0.1c-2.3,0-4.1,1.6-4.1,4.7V317.9z"/>
	<path class="st6" d="M512.4,317.9h-1.8l-3.7-4.8l-2.1,2.1v2.7h-1.5v-14.6h1.5v10.1l5.6-5.8h1.9l-4.3,4.4L512.4,317.9z"/>
	<path class="st6" d="M515.7,317.9H515v-2.1h1.8v1.8c0,1.6-0.7,2.4-2.2,2.7l-0.2-0.7C515.4,319.3,515.8,318.7,515.7,317.9z"/>
	<path class="st6" d="M529.4,314.9c0,1.3,0.7,1.7,1.7,1.7c0.5,0,1-0.1,1.5-0.4v1.3c-0.5,0.3-1.1,0.4-1.9,0.4c-1.7,0-2.9-0.8-2.9-2.9
		v-6.2h-1.4v-1.4h1.4v-3.1h1.5v3.1h3.3v1.4h-3.3V314.9z"/>
	<path class="st6" d="M537.5,317.9H536v-14.6h1.5v6.1c0.7-1.1,1.8-2,3.5-2c2.5,0,4,1.7,4,4.1v6.4h-1.5v-6c0-1.9-1-3.1-2.9-3.1
		c-1.8,0-3.1,1.3-3.1,3.2V317.9z"/>
	<path class="st6" d="M553.5,316.8c1.4,0,2.4-0.6,3.3-1.5l1,0.9c-1,1.2-2.3,1.9-4.3,1.9c-2.8,0-5.2-2.2-5.2-5.4c0-3,2.1-5.4,5-5.4
		c3.1,0,4.8,2.4,4.8,5.5c0,0.1,0,0.3,0,0.5h-8.2C550,315.5,551.6,316.8,553.5,316.8z M556.5,312.1c-0.2-1.9-1.2-3.5-3.3-3.5
		c-1.8,0-3.2,1.5-3.4,3.5H556.5z"/>
	<path class="st6" d="M568,305.3v-1.7h1.8v1.7H568z M568.1,317.9v-10.3h1.5v10.3H568.1z"/>
	<path class="st6" d="M575.3,317.9h-1.5v-10.3h1.5v1.8c0.7-1.1,1.8-2,3.5-2c2.5,0,4,1.7,4,4.1v6.4h-1.5v-6c0-1.9-1-3.1-2.9-3.1
		c-1.8,0-3.1,1.3-3.1,3.2V317.9z"/>
	<path class="st6" d="M595,317.9v-2.1c-0.8,1.2-2.1,2.3-4,2.3c-2.5,0-4.9-2-4.9-5.4c0-3.4,2.5-5.4,4.9-5.4c1.9,0,3.2,1,4,2.2v-6.2
		h1.5v14.6H595z M591.3,308.7c-2,0-3.6,1.5-3.6,4c0,2.5,1.7,4,3.6,4c1.9,0,3.7-1.6,3.7-4C595.1,310.3,593.3,308.7,591.3,308.7z"/>
	<path class="st6" d="M607.9,307.5h1.5v10.3h-1.5v-1.8c-0.7,1.1-1.8,2-3.5,2c-2.5,0-4-1.7-4-4.1v-6.4h1.5v6c0,1.9,1,3.1,2.9,3.1
		c1.8,0,3.1-1.3,3.1-3.2V307.5z"/>
	<path class="st6" d="M616.9,318.1c-1.5,0-3.1-0.6-4.3-1.5l0.8-1.1c1.1,0.8,2.4,1.3,3.6,1.3c1.2,0,2.1-0.6,2.1-1.6v0
		c0-1-1.2-1.4-2.6-1.8c-1.6-0.5-3.4-1-3.4-2.9v0c0-1.8,1.5-3,3.5-3c1.3,0,2.7,0.4,3.7,1.1l-0.7,1.2c-1-0.6-2.1-1-3.1-1
		c-1.2,0-2,0.6-2,1.5v0c0,1,1.3,1.4,2.7,1.8c1.6,0.5,3.3,1.1,3.3,3v0C620.6,316.9,619,318.1,616.9,318.1z"/>
	<path class="st6" d="M626,314.9c0,1.3,0.7,1.7,1.7,1.7c0.5,0,1-0.1,1.5-0.4v1.3c-0.5,0.3-1.1,0.4-1.9,0.4c-1.7,0-2.9-0.8-2.9-2.9
		v-6.2H623v-1.4h1.4v-3.1h1.5v3.1h3.3v1.4H626V314.9z"/>
	<path class="st6" d="M634.1,317.9h-1.5v-10.3h1.5v2.7c0.8-1.7,2.3-3,4.2-2.9v1.7h-0.1c-2.3,0-4.1,1.6-4.1,4.7V317.9z"/>
	<path class="st6" d="M646.3,318.2c-0.9,2.1-1.9,2.9-3.4,2.9c-0.9,0-1.5-0.2-2.2-0.5l0.5-1.2c0.5,0.3,1,0.4,1.6,0.4
		c0.9,0,1.5-0.5,2.1-1.9l-4.7-10.3h1.7l3.8,8.6l3.3-8.6h1.6L646.3,318.2z"/>
	<path class="st6" d="M660.9,309.5l-0.5-1.3c1.1-0.5,2.3-0.9,3.8-0.9c2.8,0,4.4,1.4,4.4,4.2v6.3h-1.5v-1.6c-0.7,0.9-1.9,1.8-3.7,1.8
		c-1.9,0-3.9-1.1-3.9-3.2c0-2.2,1.8-3.4,4.4-3.4c1.3,0,2.3,0.2,3.2,0.4v-0.4c0-1.9-1.1-2.8-3.1-2.8
		C662.8,308.8,661.8,309.1,660.9,309.5z M661,314.8c0,1.3,1.2,2.1,2.6,2.1c1.9,0,3.5-1.2,3.5-2.8v-1c-0.8-0.2-1.8-0.4-3-0.4
		C662.1,312.6,661,313.5,661,314.8z"/>
	<path class="st6" d="M674,317.9h-1.5v-10.3h1.5v1.8c0.7-1.1,1.8-2,3.5-2c2.5,0,4,1.7,4,4.1v6.4H680v-6c0-1.9-1-3.1-2.9-3.1
		c-1.8,0-3.1,1.3-3.1,3.2V317.9z"/>
	<path class="st6" d="M693.7,317.9v-2.1c-0.8,1.2-2.1,2.3-4,2.3c-2.5,0-4.9-2-4.9-5.4c0-3.4,2.5-5.4,4.9-5.4c1.9,0,3.2,1,4,2.2v-6.2
		h1.5v14.6H693.7z M690,308.7c-2,0-3.6,1.5-3.6,4c0,2.5,1.7,4,3.6,4c1.9,0,3.7-1.6,3.7-4C693.7,310.3,691.9,308.7,690,308.7z"/>
	<path class="st6" d="M710.6,318.1c-3.1,0-5.4-2.4-5.4-5.4s2.3-5.4,5.4-5.4c3.1,0,5.4,2.4,5.4,5.4
		C716,315.6,713.7,318.1,710.6,318.1z M710.6,308.7c-2.2,0-3.8,1.8-3.8,4c0,2.2,1.6,4,3.8,4c2.2,0,3.8-1.8,3.8-4
		C714.4,310.5,712.8,308.7,710.6,308.7z"/>
	<path class="st6" d="M726.7,307.5h1.5v10.3h-1.5v-1.8c-0.7,1.1-1.8,2-3.5,2c-2.5,0-4-1.7-4-4.1v-6.4h1.5v6c0,1.9,1,3.1,2.9,3.1
		c1.8,0,3.1-1.3,3.1-3.2V307.5z"/>
	<path class="st6" d="M733.8,317.9h-1.5v-10.3h1.5v2.7c0.8-1.7,2.3-3,4.2-2.9v1.7h-0.1c-2.3,0-4.1,1.6-4.1,4.7V317.9z"/>
	<path class="st6" d="M752.1,316.8c1.4,0,2.4-0.6,3.3-1.5l1,0.9c-1,1.2-2.3,1.9-4.3,1.9c-2.8,0-5.2-2.2-5.2-5.4c0-3,2.1-5.4,5-5.4
		c3.1,0,4.8,2.4,4.8,5.5c0,0.1,0,0.3,0,0.5h-8.2C748.7,315.5,750.3,316.8,752.1,316.8z M755.2,312.1c-0.2-1.9-1.2-3.5-3.3-3.5
		c-1.8,0-3.2,1.5-3.4,3.5H755.2z"/>
	<path class="st6" d="M768.4,317.9h-1.8l-3.2-4.2l-3.2,4.2h-1.7l4.1-5.3l-3.9-5.1h1.8l3.1,4l3.1-4h1.7l-3.9,5L768.4,317.9z"/>
	<path class="st6" d="M777,318.1c-1.9,0-3.2-1-4-2.2v5.2h-1.5v-13.5h1.5v2.1c0.8-1.2,2.1-2.3,4-2.3c2.5,0,4.9,2,4.9,5.4
		C781.9,316.1,779.5,318.1,777,318.1z M776.7,308.7c-1.9,0-3.7,1.6-3.7,4c0,2.4,1.8,4,3.7,4c2,0,3.6-1.5,3.6-4
		C780.4,310.3,778.7,308.7,776.7,308.7z"/>
	<path class="st6" d="M789.9,316.8c1.4,0,2.4-0.6,3.3-1.5l1,0.9c-1,1.2-2.3,1.9-4.3,1.9c-2.8,0-5.2-2.2-5.2-5.4c0-3,2.1-5.4,5-5.4
		c3.1,0,4.8,2.4,4.8,5.5c0,0.1,0,0.3,0,0.5h-8.2C786.5,315.5,788.1,316.8,789.9,316.8z M793,312.1c-0.2-1.9-1.2-3.5-3.3-3.5
		c-1.8,0-3.2,1.5-3.4,3.5H793z"/>
	<path class="st6" d="M799.4,317.9h-1.5v-10.3h1.5v2.7c0.8-1.7,2.3-3,4.2-2.9v1.7h-0.1c-2.3,0-4.1,1.6-4.1,4.7V317.9z"/>
	<path class="st6" d="M806.6,305.3v-1.7h1.8v1.7H806.6z M806.7,317.9v-10.3h1.5v10.3H806.7z"/>
	<path class="st6" d="M816.9,316.8c1.4,0,2.4-0.6,3.3-1.5l1,0.9c-1,1.2-2.3,1.9-4.3,1.9c-2.8,0-5.2-2.2-5.2-5.4c0-3,2.1-5.4,5-5.4
		c3.1,0,4.8,2.4,4.8,5.5c0,0.1,0,0.3,0,0.5h-8.2C813.5,315.5,815.1,316.8,816.9,316.8z M820,312.1c-0.2-1.9-1.2-3.5-3.3-3.5
		c-1.8,0-3.2,1.5-3.4,3.5H820z"/>
	<path class="st6" d="M826.4,317.9h-1.5v-10.3h1.5v1.8c0.7-1.1,1.8-2,3.5-2c2.5,0,4,1.7,4,4.1v6.4h-1.5v-6c0-1.9-1-3.1-2.9-3.1
		c-1.8,0-3.1,1.3-3.1,3.2V317.9z"/>
	<path class="st6" d="M842.4,318.1c-3,0-5.3-2.5-5.3-5.4c0-2.9,2.3-5.4,5.3-5.4c2,0,3.2,0.8,4.1,1.8l-1,1.1
		c-0.8-0.9-1.7-1.6-3.1-1.6c-2.1,0-3.7,1.8-3.7,4c0,2.3,1.6,4,3.8,4c1.3,0,2.3-0.7,3.2-1.5l1,0.9
		C845.6,317.3,844.3,318.1,842.4,318.1z"/>
	<path class="st6" d="M854,316.8c1.4,0,2.4-0.6,3.3-1.5l1,0.9c-1,1.2-2.3,1.9-4.3,1.9c-2.8,0-5.2-2.2-5.2-5.4c0-3,2.1-5.4,5-5.4
		c3.1,0,4.8,2.4,4.8,5.5c0,0.1,0,0.3,0,0.5h-8.2C850.6,315.5,852.2,316.8,854,316.8z M857,312.1c-0.2-1.9-1.2-3.5-3.3-3.5
		c-1.8,0-3.2,1.5-3.4,3.5H857z"/>
	<path class="st6" d="M865.3,318.1c-1.5,0-3.1-0.6-4.3-1.5l0.8-1.1c1.1,0.8,2.4,1.3,3.6,1.3c1.2,0,2.1-0.6,2.1-1.6v0
		c0-1-1.2-1.4-2.6-1.8c-1.6-0.5-3.4-1-3.4-2.9v0c0-1.8,1.5-3,3.5-3c1.3,0,2.7,0.4,3.7,1.1l-0.7,1.2c-1-0.6-2.1-1-3.1-1
		c-1.2,0-2,0.6-2,1.5v0c0,1,1.3,1.4,2.7,1.8c1.6,0.5,3.3,1.1,3.3,3v0C869,316.9,867.4,318.1,865.3,318.1z"/>
	<path class="st6" d="M878.2,307.7c0-1.5-1.1-2.6-2.9-2.6c-1.5,0-2.6,0.7-3.6,1.9l-1-1c1.1-1.4,2.6-2.3,4.7-2.3c2.7,0,4.5,1.7,4.5,4
		c0,2.5-1.9,3.8-4.2,4.1l-0.2,2.2h-1l-0.3-3.2l0.1-0.1C876.9,310.5,878.2,309.4,878.2,307.7z M874,317.9v-2.1h1.8v2.1H874z"/>
</g>
</svg>
