<?xml version="1.0" encoding="utf-8"?>
<!-- Generator: Adobe Illustrator 19.1.0, SVG Export Plug-In . SVG Version: 6.00 Build 0)  -->
<svg version="1.1" id="Thanks" xmlns="http://www.w3.org/2000/svg" xmlns:xlink="http://www.w3.org/1999/xlink" x="0px" y="0px"
	 viewBox="0 0 1300 516" style="enable-background:new 0 0 1300 516;" xml:space="preserve">
<style type="text/css">
	.st0{opacity:0.4;clip-path:url(#SVGID_2_);}
	.st1{fill:none;stroke:#00ABD2;stroke-miterlimit:10;}
</style>
<g id="lines">
	<defs>
		<path id="SVGID_1_" d="M1296.9,516H-3.1V0c0,0,670.7,0,750.4,0s323.5,0,313.7,0c81.8,0,235.9,0,235.9,0V516z"/>
	</defs>
	<clipPath id="SVGID_2_">
		<use xlink:href="#SVGID_1_"  style="overflow:visible;"/>
	</clipPath>
	<g class="st0">
		<path class="st1" d="M176.1,398c0,0,82.2,26.3,175.2-1.4c93-27.6,141.4-32.9,201.3,27.8c106.5,108.1,55.8,315-12.3,380.2
			c-48.6,46.5-179,44.4-231.8-31.1c-52.8-75.5-69-256.5-176.8-314.1c-87.3-46.6-80.5-48.7-186.9-26.6
			c-80.8,16.8-120.2-56.5-130-102.3C-197.5,273.7-154,198.3-82,172.5C-10,146.6,45.6,199,63.9,292.8C82.3,386.7,176.1,398,176.1,398
			z"/>
		<path class="st1" d="M168.7,391.8c0,0,83.8,26.3,180.2-6.4c96.4-32.7,146.3-39.9,206.1,24.7c106.5,115,48.5,342.3-23.4,415.4
			c-51.3,52.1-185.3,53.5-237.5-27.4c-52.2-81-63.7-278.1-173-338c-88.4-48.4-81.4-50.9-191.4-23.8c-83.5,20.6-122-58.3-130.8-108
			c-10.9-61.7,35.9-145.2,110.7-175.5c74.8-30.3,130.4,25.4,146.6,127.3C72.6,382.1,168.7,391.8,168.7,391.8z"/>
		<path class="st1" d="M159,379.5c0,0,86.8,26.7,188.9-13.8c102.1-40.5,154.6-50.4,214.9,20.4c107.3,126,38.2,385-39.7,470.2
			c-55.6,60.8-196,67.2-247.6-22.3c-51.7-89.6-56.6-311.9-168.7-375.6C16,406.9,23.4,403.8-92.8,438.5
			c-88.2,26.3-125.6-61.4-133-117.3c-9.2-69.4,42.9-165.4,122.3-202.3c79.4-37,135.6,23.9,148.9,138.5C58.7,372,159,379.5,159,379.5
			z"/>
	</g>
	<g class="st0">
		<path class="st1" d="M975.4-222.6c0,0,81.8,27.5,175.2,1.3c93.4-26.2,141.9-30.8,200.8,30.9c104.9,109.6,51,315.8-18.1,380
			c-49.3,45.8-179.7,41.7-231.3-34.6C1050.4,78.7,1037-102.6,930-161.8c-86.5-47.9-79.7-49.9-186.5-29.5
			c-81,15.6-119.4-58.3-128.5-104.2c-11.3-57,33.4-131.7,105.7-156.5c72.4-24.8,127.2,28.4,144.1,122.6
			C881.8-235.3,975.4-222.6,975.4-222.6z"/>
		<path class="st1" d="M968.2-228.9c0,0,83.4,27.6,180.2-3.7c96.9-31.3,146.9-37.7,205.7,27.8c104.7,116.6,43.3,343-29.6,415
			c-52,51.4-186.1,50.7-237-31c-51-81.7-59.5-279-167.8-340.5c-87.6-49.7-80.6-52.2-191-26.7c-83.8,19.3-121.1-60.1-129.2-110
			c-10-61.9,38.1-144.6,113.3-173.8c75.2-29.2,130,27.3,144.7,129.5C872.2-240.1,968.2-228.9,968.2-228.9z"/>
		<path class="st1" d="M958.6-241.4c0,0,86.3,28,189.1-11c102.7-39,155.4-48.1,214.6,23.6c105.4,127.6,32.4,385.5-46.7,469.6
			c-56.5,60-197,64.3-247.3-26c-50.3-90.3-51.8-312.7-163.1-378.1c-90-52.9-82.5-55.9-199.2-22.9c-88.6,25-124.7-63.3-131.2-119.3
			c-8.1-69.5,45.4-164.7,125.4-200.5c79.9-35.8,135.3,25.9,146.8,140.7C858.4-250.4,958.6-241.4,958.6-241.4z"/>
	</g>
	<g class="st0">
		<path class="st1" d="M1118.2,346.9c0,0,45.4-73.4,41.1-170.3c-4.3-96.9,2.3-145.2,75.7-188.6c130.6-77.2,319.1,22.1,365.9,104
			c33.4,58.4-0.2,184.4-86.2,217.4c-86,33-265.6,4.9-347.6,95.6c-66.3,73.4-66.8,66.3-71.1,174.9c-3.3,82.4-83.9,103-130.7,101.4
			c-58.1-2-120.7-62.4-128.4-138.5c-7.7-76.1,56.6-117.4,152.1-112.5C1084.4,435.2,1118.2,346.9,1118.2,346.9z"/>
		<path class="st1" d="M1110.3,352.6c0,0,45.8-74.9,37.4-176.4c-8.5-101.4-3.3-151.6,73.9-194C1358.9-93.3,1565.4,18,1619,105.3
			c38.2,62.3,7.1,192.7-84.1,223.8c-91.2,31-285.3-5.5-369.8,86.1c-68.4,74-69.1,66.6-69.4,180c-0.2,86-86.1,104.3-136.5,100.8
			c-62.5-4.4-132.2-70-143.5-149.9c-11.3-79.9,56.2-120.4,159-111.5C1077.6,443.5,1110.3,352.6,1110.3,352.6z"/>
		<path class="st1" d="M1096,359c0,0,46.9-77.7,32.3-186.6c-14.6-108.9-11.5-162.3,71.8-203.6c148.2-73.6,382.8,56,446.7,152.2
			c45.5,68.6,17.8,206.4-81.6,234.9c-99.4,28.5-316.3-20.6-405.2,72.9c-71.9,75.6-73.1,67.6-67.6,188.8c4.2,92-90,107-146,100.7
			c-69.5-7.9-150.1-81.7-166.7-167.7c-16.7-86,56-125.8,170.4-111C1064.5,454.6,1096,359,1096,359z"/>
	</g>
</g>
</svg>
